<?xml version="1.0" encoding="UTF-8" standalone="no"?>
<svg width="30px" height="40px" viewBox="0 0 30 40" version="1.1" xmlns="http://www.w3.org/2000/svg" xmlns:xlink="http://www.w3.org/1999/xlink">
    <!-- Generator: sketchtool 39.1 (31720) - http://www.bohemiancoding.com/sketch -->
    <title>61A34015-88DD-4AB9-A239-B1C89561A5CC</title>
    <desc>Created with sketchtool.</desc>
    <defs></defs>
    <g id="2.Home" stroke="none" stroke-width="1" fill="none" fill-rule="evenodd">
        <g id="2.0.3-Sidebar-Settings" transform="translate(-148.000000, -448.000000)" fill="#FFFFFF">
            <g id="Help" transform="translate(120.000000, 408.000000)">
                <g id="ic_account" transform="translate(28.000000, 35.000000)">
                    <path d="M15,5 C9.63159766,5 5.24988148,9.38230879 5.24988148,14.7501185 L5.24988148,18.6393805 L4.16660082,18.6393805 C1.8886299,18.6393805 0,20.5422329 0,22.8196113 L0,40.8341893 C0,43.1115676 1.8886299,45.0007901 4.16660082,45.0007901 L25.8333992,45.0007901 C28.1113701,45.0007901 30,43.1097898 30,40.8341893 L30,22.8196113 C30,20.5440107 28.1113701,18.6393805 25.8333992,18.6393805 L24.7501185,18.6393805 L24.7501185,14.7501185 C24.7501185,9.38230879 20.3684023,5 15,5 L15,5 Z M15,8.83355721 C18.3102876,8.83355721 20.9165613,11.4398309 20.9165613,14.7501185 L20.9165613,18.6393805 L9.08343869,18.6393805 L9.08343869,14.7501185 C9.08343869,11.4398309 11.6897124,8.83355721 15,8.83355721 L15,8.83355721 Z M4.16660082,22.4865676 L25.8333992,22.4865676 C26.050885,22.4865676 26.1670354,22.5997551 26.1670354,22.8196113 L26.1670354,40.8341893 C26.1670354,41.0540455 26.050885,41.1672329 25.8333992,41.1672329 L4.16660082,41.1672329 C3.94911504,41.1672329 3.8329646,41.0516751 3.8329646,40.8341893 L3.8329646,22.8196113 C3.8329646,22.6021255 3.94911504,22.4865676 4.16660082,22.4865676 L4.16660082,22.4865676 Z M15.0835572,26.7088733 L15.0835572,26.7088733 C13.3821903,26.6626501 11.9789033,28.0327513 11.9860145,29.7364886 C11.988385,30.6348767 12.3913559,31.4840787 13.0835177,32.0559418 L13.0835177,36.5004741 C13.0414428,37.5884956 13.9119785,38.4916245 15,38.4916245 C16.0880215,38.4916245 16.9585572,37.5884956 16.9164823,36.5004741 L16.9164823,32.0559418 C17.6086441,31.4840787 18.011615,30.6348767 18.0139855,29.7364886 C18.0210967,28.0997155 16.7197377,26.7550964 15.0835572,26.7088733 L15.0835572,26.7088733 Z" id="Page-1"></path>
                </g>
            </g>
        </g>
    </g>
</svg>