<?xml version="1.0" encoding="UTF-8" standalone="no"?>
<svg width="44px" height="48px" viewBox="0 0 44 48" version="1.1" xmlns="http://www.w3.org/2000/svg" xmlns:xlink="http://www.w3.org/1999/xlink">
    <!-- Generator: sketchtool 39.1 (31720) - http://www.bohemiancoding.com/sketch -->
    <title>9AB931BF-3393-401D-B61B-53C0C39F268C</title>
    <desc>Created with sketchtool.</desc>
    <defs></defs>
    <g id="2.Home" stroke="none" stroke-width="1" fill="none" fill-rule="evenodd">
        <g id="2.0.1-Homescreen-v6" transform="translate(-397.000000, -536.000000)" fill="#0C78BE">
            <g id="Status" transform="translate(28.000000, 511.000000)">
                <g id="BUS" transform="translate(342.000000, 0.000000)">
                    <g id="ic_bus">
                        <path d="M68.36,36.52 L67.48,36.52 L67.48,31.72 C67.48,30.13472 66.41696,28.26016 65.11984,27.55232 C65.11984,27.55232 60.44,25 49,25 C37.56,25 32.88016,27.55232 32.88016,27.55232 C31.58304,28.26016 30.52,30.13472 30.52,31.72 L30.52,36.52 L29.64,36.52 C28.1868267,36.52 27,37.81472 27,39.4 L27,42.28 C27,43.86528 28.1868267,45.16 29.64,45.16 L30.52,45.16 L30.52,64.84 C30.52,66.08736 31.2580267,67.15232 32.28,67.54976 L32.28,69.16 C32.28,71.27264 33.8634133,73 35.8,73 C37.7365867,73 39.32,71.27264 39.32,69.16 L39.32,67.72 L58.68,67.72 L58.68,69.16 C58.68,71.27264 60.2634133,73 62.2,73 C64.1365867,73 65.72,71.27264 65.72,69.16 L65.72,67.54976 C66.7419733,67.15232 67.48,66.08736 67.48,64.84 L67.48,45.16 L68.36,45.16 C69.8131733,45.16 71,43.86528 71,42.28 L71,39.4 C71,37.81472 69.8131733,36.52 68.36,36.52 L68.36,36.52 Z M40.2,29.8 C40.2,29.27264 40.5965867,28.84 41.08,28.84 L56.92,28.84 C57.4034133,28.84 57.8,29.27264 57.8,29.8 L57.8,31.72 C57.8,32.24736 57.4034133,32.68 56.92,32.68 L41.08,32.68 C40.5965867,32.68 40.2,32.24736 40.2,31.72 L40.2,29.8 Z M36.24,63.88 C35.0256,63.88 34.04,62.8048 34.04,61.48 C34.04,60.1552 35.0256,59.08 36.24,59.08 C37.4544,59.08 38.44,60.1552 38.44,61.48 C38.44,62.8048 37.4544,63.88 36.24,63.88 L36.24,63.88 Z M61.76,63.88 C60.5456,63.88 59.56,62.8048 59.56,61.48 C59.56,60.1552 60.5456,59.08 61.76,59.08 C62.9744,59.08 63.96,60.1552 63.96,61.48 C63.96,62.8048 62.9744,63.88 61.76,63.88 L61.76,63.88 Z M63.96,52.84 C63.96,53.36736 63.5634133,53.8 63.08,53.8 L34.92,53.8 C34.4365867,53.8 34.04,53.36736 34.04,52.84 L34.04,37.48 C34.04,36.95264 34.4365867,36.52 34.92,36.52 L63.08,36.52 C63.5634133,36.52 63.96,36.95264 63.96,37.48 L63.96,52.84 Z" id="Page-1"></path>
                    </g>
                </g>
            </g>
        </g>
    </g>
</svg>