<?xml version="1.0" encoding="UTF-8" standalone="no"?>
<svg width="30px" height="36px" viewBox="0 0 30 36" version="1.1" xmlns="http://www.w3.org/2000/svg" xmlns:xlink="http://www.w3.org/1999/xlink">
    <!-- Generator: sketchtool 39.1 (31720) - http://www.bohemiancoding.com/sketch -->
    <title>7F4E379D-C380-4547-898A-662CDC05EF72</title>
    <desc>Created with sketchtool.</desc>
    <defs></defs>
    <g id="2.Home" stroke="none" stroke-width="1" fill="none" fill-rule="evenodd">
        <g id="2.0.1-Homescreen-v6" transform="translate(-219.000000, -418.000000)" fill="#0C78BE">
            <g id="User" transform="translate(219.000000, 180.000000)">
                <g id="Building" transform="translate(0.000000, 238.000000)">
                    <path d="M0,34.4293392 L0,35.3269358 C0,35.7002678 0.287465602,36 0.641597624,36 L29.3561579,36 C29.7124233,36 29.9977556,35.6981345 29.9998889,35.3269358 L29.9998889,34.4293392 C29.9998889,34.0560072 29.71029,33.7541417 29.3561579,33.7541417 L28.7225603,33.7541417 L28.7225603,11.8000896 C28.7225603,11.7334232 28.6937604,11.6294236 28.6558939,11.5686238 L25.8559042,7.69823815 C25.7145714,7.46250569 25.4809723,7.46250569 25.3375062,7.69823815 L22.5375165,11.5686238 C22.5017833,11.6272903 22.4751168,11.7291566 22.4751168,11.8000896 L22.4751168,33.7541417 L21.2500546,33.7541417 L21.2500546,5.71691216 C21.2500546,5.64811241 21.2105881,5.55211277 21.1647216,5.50197962 L15.3455432,0.149999444 C15.1562105,-0.0499998148 14.8458117,-0.0499998148 14.6559457,0.149999444 L8.83943393,5.50197962 C8.79143411,5.5542461 8.75196759,5.64811241 8.75196759,5.71691216 L8.75196759,33.7541417 L7.52903878,33.7541417 L7.52903878,11.8000896 C7.52903878,11.7334232 7.49810556,11.6294236 7.46237236,11.5686238 L4.66238273,7.69823815 C4.5189166,7.46250569 4.28745079,7.46250569 4.14398465,7.69823815 L1.34399502,11.5686238 C1.30826182,11.6272903 1.2789286,11.7291566 1.2789286,11.8000896 L1.2789286,33.7541417 L0.643730949,33.7541417 C0.285332277,33.7541417 0,34.0560072 0,34.4293392 L0,34.4293392 Z M24.472976,12.7168862 L26.7225677,12.7168862 L26.7225677,14.9627446 L24.472976,14.9627446 L24.472976,12.7168862 Z M24.472976,17.7062011 L26.7225677,17.7062011 L26.7225677,19.9520594 L24.472976,19.9520594 L24.472976,17.7062011 Z M24.472976,22.6917826 L26.7225677,22.6917826 L26.7225677,24.937641 L24.472976,24.937641 L24.472976,22.6917826 Z M24.472976,27.6810975 L26.7225677,27.6810975 L26.7225677,29.9269558 L24.472976,29.9269558 L24.472976,27.6810975 Z M16.999937,6.92917434 L19.250062,6.92917434 L19.250062,9.17289936 L16.999937,9.17289936 L16.999937,6.92917434 Z M16.999937,11.9168892 L19.250062,11.9168892 L19.250062,14.1627475 L16.999937,14.1627475 L16.999937,11.9168892 Z M16.999937,16.9062041 L19.250062,16.9062041 L19.250062,19.1520624 L16.999937,19.1520624 L16.999937,16.9062041 Z M16.999937,21.8917856 L19.250062,21.8917856 L19.250062,24.1376439 L16.999937,24.1376439 L16.999937,21.8917856 Z M16.999937,26.8811004 L19.250062,26.8811004 L19.250062,29.1269588 L16.999937,29.1269588 L16.999937,26.8811004 Z M13.7039492,29.962689 C13.7039492,29.8272229 13.8122155,29.7168233 13.9476817,29.7168233 L16.1498069,29.7168233 C16.2831397,29.7168233 16.3935393,29.8272229 16.3935393,29.962689 L16.3935393,32.2186807 C16.3935393,32.3541468 16.2831397,32.4624131 16.1498069,32.4624131 L13.9476817,32.4624131 C13.8122155,32.4624131 13.7039492,32.3541468 13.7039492,32.2186807 L13.7039492,29.962689 Z M10.7498269,6.92917434 L12.9999519,6.92917434 L12.9999519,9.17289936 L10.7498269,9.17289936 L10.7498269,6.92917434 Z M10.7498269,11.9168892 L12.9999519,11.9168892 L12.9999519,14.1627475 L10.7498269,14.1627475 L10.7498269,11.9168892 Z M10.7498269,16.9062041 L12.9999519,16.9062041 L12.9999519,19.1520624 L10.7498269,19.1520624 L10.7498269,16.9062041 Z M10.7498269,21.8917856 L12.9999519,21.8917856 L12.9999519,24.1376439 L10.7498269,24.1376439 L10.7498269,21.8917856 Z M10.7498269,26.8811004 L12.9999519,26.8811004 L12.9999519,29.1269588 L10.7498269,29.1269588 L10.7498269,26.8811004 Z M3.2773212,12.7168862 L5.52691286,12.7168862 L5.52691286,14.9627446 L3.2773212,14.9627446 L3.2773212,12.7168862 Z M3.2773212,17.7062011 L5.52691286,17.7062011 L5.52691286,19.9520594 L3.2773212,19.9520594 L3.2773212,17.7062011 Z M3.2773212,22.6917826 L5.52691286,22.6917826 L5.52691286,24.937641 L3.2773212,24.937641 L3.2773212,22.6917826 Z M3.2773212,27.6810975 L5.52691286,27.6810975 L5.52691286,29.9269558 L3.2773212,29.9269558 L3.2773212,27.6810975 Z" id="ic_Building"></path>
                </g>
            </g>
        </g>
    </g>
</svg>