<?xml version="1.0" encoding="UTF-8" standalone="no"?>
<svg width="30px" height="36px" viewBox="0 0 30 36" version="1.1" xmlns="http://www.w3.org/2000/svg" xmlns:xlink="http://www.w3.org/1999/xlink">
    <!-- Generator: sketchtool 39.1 (31720) - http://www.bohemiancoding.com/sketch -->
    <title>C973383C-6C3D-4E9A-9486-B8DC72271F69</title>
    <desc>Created with sketchtool.</desc>
    <defs></defs>
    <g id="2.Home" stroke="none" stroke-width="1" fill="none" fill-rule="evenodd">
        <g id="2.0.3-Sidebar-Settings" transform="translate(-148.000000, -90.000000)" fill="#FFFFFF">
            <g id="Building-info" transform="translate(120.000000, 48.000000)">
                <g id="ic_buildinginfo2" transform="translate(28.000000, 35.000000)">
                    <path d="M0,41.4293392 L0,42.3269358 C0,42.7002678 0.287465602,43 0.641597624,43 L29.3561579,43 C29.7124233,43 29.9977556,42.6981345 29.9998889,42.3269358 L29.9998889,41.4293392 C29.9998889,41.0560072 29.71029,40.7541417 29.3561579,40.7541417 L28.7225603,40.7541417 L28.7225603,18.8000896 C28.7225603,18.7334232 28.6937604,18.6294236 28.6558939,18.5686238 L25.8559042,14.6982382 C25.7145714,14.4625057 25.4809723,14.4625057 25.3375062,14.6982382 L22.5375165,18.5686238 C22.5017833,18.6272903 22.4751168,18.7291566 22.4751168,18.8000896 L22.4751168,40.7541417 L21.2500546,40.7541417 L21.2500546,12.7169122 C21.2500546,12.6481124 21.2105881,12.5521128 21.1647216,12.5019796 L15.3455432,7.14999944 C15.1562105,6.95000019 14.8458117,6.95000019 14.6559457,7.14999944 L8.83943393,12.5019796 C8.79143411,12.5542461 8.75196759,12.6481124 8.75196759,12.7169122 L8.75196759,40.7541417 L7.52903878,40.7541417 L7.52903878,18.8000896 C7.52903878,18.7334232 7.49810556,18.6294236 7.46237236,18.5686238 L4.66238273,14.6982382 C4.5189166,14.4625057 4.28745079,14.4625057 4.14398465,14.6982382 L1.34399502,18.5686238 C1.30826182,18.6272903 1.2789286,18.7291566 1.2789286,18.8000896 L1.2789286,40.7541417 L0.643730949,40.7541417 C0.285332277,40.7541417 0,41.0560072 0,41.4293392 L0,41.4293392 Z M24.472976,19.7168862 L26.7225677,19.7168862 L26.7225677,21.9627446 L24.472976,21.9627446 L24.472976,19.7168862 Z M24.472976,24.7062011 L26.7225677,24.7062011 L26.7225677,26.9520594 L24.472976,26.9520594 L24.472976,24.7062011 Z M24.472976,29.6917826 L26.7225677,29.6917826 L26.7225677,31.937641 L24.472976,31.937641 L24.472976,29.6917826 Z M24.472976,34.6810975 L26.7225677,34.6810975 L26.7225677,36.9269558 L24.472976,36.9269558 L24.472976,34.6810975 Z M16.999937,13.9291743 L19.250062,13.9291743 L19.250062,16.1728994 L16.999937,16.1728994 L16.999937,13.9291743 Z M16.999937,18.9168892 L19.250062,18.9168892 L19.250062,21.1627475 L16.999937,21.1627475 L16.999937,18.9168892 Z M16.999937,23.9062041 L19.250062,23.9062041 L19.250062,26.1520624 L16.999937,26.1520624 L16.999937,23.9062041 Z M16.999937,28.8917856 L19.250062,28.8917856 L19.250062,31.1376439 L16.999937,31.1376439 L16.999937,28.8917856 Z M16.999937,33.8811004 L19.250062,33.8811004 L19.250062,36.1269588 L16.999937,36.1269588 L16.999937,33.8811004 Z M13.7039492,36.962689 C13.7039492,36.8272229 13.8122155,36.7168233 13.9476817,36.7168233 L16.1498069,36.7168233 C16.2831397,36.7168233 16.3935393,36.8272229 16.3935393,36.962689 L16.3935393,39.2186807 C16.3935393,39.3541468 16.2831397,39.4624131 16.1498069,39.4624131 L13.9476817,39.4624131 C13.8122155,39.4624131 13.7039492,39.3541468 13.7039492,39.2186807 L13.7039492,36.962689 Z M10.7498269,13.9291743 L12.9999519,13.9291743 L12.9999519,16.1728994 L10.7498269,16.1728994 L10.7498269,13.9291743 Z M10.7498269,18.9168892 L12.9999519,18.9168892 L12.9999519,21.1627475 L10.7498269,21.1627475 L10.7498269,18.9168892 Z M10.7498269,23.9062041 L12.9999519,23.9062041 L12.9999519,26.1520624 L10.7498269,26.1520624 L10.7498269,23.9062041 Z M10.7498269,28.8917856 L12.9999519,28.8917856 L12.9999519,31.1376439 L10.7498269,31.1376439 L10.7498269,28.8917856 Z M10.7498269,33.8811004 L12.9999519,33.8811004 L12.9999519,36.1269588 L10.7498269,36.1269588 L10.7498269,33.8811004 Z M3.2773212,19.7168862 L5.52691286,19.7168862 L5.52691286,21.9627446 L3.2773212,21.9627446 L3.2773212,19.7168862 Z M3.2773212,24.7062011 L5.52691286,24.7062011 L5.52691286,26.9520594 L3.2773212,26.9520594 L3.2773212,24.7062011 Z M3.2773212,29.6917826 L5.52691286,29.6917826 L5.52691286,31.937641 L3.2773212,31.937641 L3.2773212,29.6917826 Z M3.2773212,34.6810975 L5.52691286,34.6810975 L5.52691286,36.9269558 L3.2773212,36.9269558 L3.2773212,34.6810975 Z" id="ic_Building"></path>
                </g>
            </g>
        </g>
    </g>
</svg>