<?xml version="1.0" encoding="UTF-8" standalone="no"?>
<svg width="64px" height="64px" viewBox="0 0 64 64" version="1.1" xmlns="http://www.w3.org/2000/svg" xmlns:xlink="http://www.w3.org/1999/xlink">
    <!-- Generator: sketchtool 39.1 (31720) - http://www.bohemiancoding.com/sketch -->
    <title>51049D74-F274-482E-94D9-3D98457B60F9</title>
    <desc>Created with sketchtool.</desc>
    <defs></defs>
    <g id="2.Home" stroke="none" stroke-width="1" fill="none" fill-rule="evenodd">
        <g id="2.1.1-More-Filter" transform="translate(-28.000000, -582.000000)">
            <g id="Hotels-Copy" transform="translate(0.000000, 564.000000)">
                <g id="ic_Conciergerie" transform="translate(28.000000, 18.000000)">
                    <circle id="Oval" fill="#0C78BE" cx="32" cy="32" r="32"></circle>
                    <g id="Page-1" transform="translate(13.000000, 15.000000)" fill="#FFFFFF">
                        <polygon id="Fill-1" points="0.409297052 33.5569206 15.4785231 33.5569206 15.4785231 31.902254 0.409297052 31.902254"></polygon>
                        <polygon id="Fill-2" points="22.1768057 33.5569206 37.2460317 33.5569206 37.2460317 31.902254 22.1768057 31.902254"></polygon>
                        <polygon id="Fill-3" points="7.10703401 12.0333016 7.10703401 17 5.43164475 17 5.43164475 12.0333016 2.0825034 12.0333016 2.0825034 31.0738413 10.4561754 31.0738413 10.4561754 12.0333016"></polygon>
                        <path d="M26.3636417,31.0738413 L26.3636417,17 L22.1768057,17 L22.1768057,21.9666984 L20.5030537,21.9666984 L20.5030537,17 L17.154458,17 L17.154458,21.9666984 L15.480706,21.9666984 L15.480706,17 L11.2916871,17 L11.2916871,31.0738413 L15.4785231,31.0738413 L15.4785231,26.9355556 C15.4785231,25.1060317 16.977096,23.6235238 18.8276644,23.6235238 C20.6782328,23.6235238 22.1768057,25.1060317 22.1768057,26.9355556 L22.1768057,31.076 L26.3636417,31.076 L26.3636417,31.0738413 Z" id="Fill-4"></path>
                        <polygon id="Fill-5" points="35.5728254 31.0738413 35.5728254 12.0333016 32.2236841 12.0333016 32.2236841 17 30.5482948 17 30.5482948 12.0333016 27.1991534 12.0333016 27.1991534 31.0738413"></polygon>
                        <polygon id="Fill-6" points="6.26933938 0.440380952 0.409297052 11.2048889 12.1299274 11.2048889"></polygon>
                        <polygon id="Fill-7" points="31.3859894 0.440380952 25.5254014 11.2048889 37.2460317 11.2048889"></polygon>
                        <polygon id="Fill-8" points="27.1991534 16.1715873 18.8276644 5.4092381 10.4561754 16.1715873"></polygon>
                    </g>
                </g>
            </g>
        </g>
    </g>
</svg>