<?xml version="1.0" encoding="UTF-8" standalone="no"?>
<svg width="36px" height="36px" viewBox="0 0 36 36" version="1.1" xmlns="http://www.w3.org/2000/svg" xmlns:xlink="http://www.w3.org/1999/xlink">
    <!-- Generator: sketchtool 39.1 (31720) - http://www.bohemiancoding.com/sketch -->
    <title>A97EE9EF-6BB9-4338-B827-0122F051DBD8</title>
    <desc>Created with sketchtool.</desc>
    <defs></defs>
    <g id="2.Home" stroke="none" stroke-width="1" fill="none" fill-rule="evenodd">
        <g id="2.1.2-Live-detail" transform="translate(-28.000000, -550.000000)" fill="#22B1D7">
            <g id="Basic" transform="translate(0.000000, 550.000000)">
                <g id="Open" transform="translate(28.000000, 0.000000)">
                    <path d="M23.9748261,21.7608261 C24.5860435,22.3720435 24.5860435,23.3632174 23.9748261,23.9744348 C23.6692174,24.2800435 23.268913,24.4330435 22.8682174,24.4330435 C22.4675217,24.4330435 22.0672174,24.2800435 21.7616087,23.9744348 L16.8933913,19.107 C16.599913,18.8135217 16.4347826,18.4151739 16.4347826,18 L16.4347826,8.67169565 C16.4347826,7.80730435 17.1356087,7.10647826 18,7.10647826 C18.8643913,7.10647826 19.5652174,7.80730435 19.5652174,8.67169565 L19.5652174,17.3516087 L23.9748261,21.7608261 Z M18,32.8695652 C9.801,32.8695652 3.13043478,26.199 3.13043478,18 C3.13043478,9.801 9.801,3.13043478 18,3.13043478 C26.1993913,3.13043478 32.8695652,9.801 32.8695652,18 C32.8695652,26.199 26.1993913,32.8695652 18,32.8695652 L18,32.8695652 Z M18,0 C8.07495652,0 0,8.07495652 0,18 C0,27.9250435 8.07495652,36 18,36 C27.9254348,36 36,27.9250435 36,18 C36,8.07495652 27.9254348,0 18,0 L18,0 Z" id="clock"></path>
                </g>
            </g>
        </g>
    </g>
</svg>