<?xml version="1.0" encoding="UTF-8" standalone="no"?>
<svg width="64px" height="64px" viewBox="0 0 64 64" version="1.1" xmlns="http://www.w3.org/2000/svg" xmlns:xlink="http://www.w3.org/1999/xlink">
    <!-- Generator: sketchtool 39.1 (31720) - http://www.bohemiancoding.com/sketch -->
    <title>554EB8B4-CE54-4B42-AEE2-B828FB459B5C</title>
    <desc>Created with sketchtool.</desc>
    <defs></defs>
    <g id="2.Home" stroke="none" stroke-width="1" fill="none" fill-rule="evenodd">
        <g id="2.1.1-More-Filter" transform="translate(-28.000000, -683.000000)">
            <g id="Car-wash" transform="translate(0.000000, 665.000000)">
                <g id="ic_Carwash" transform="translate(28.000000, 18.000000)">
                    <circle id="Oval" fill="#0C78BE" cx="32" cy="32" r="32"></circle>
                    <g id="Page-1" transform="translate(15.000000, 13.000000)" fill="#FFFFFF">
                        <path d="M26.5790725,8.51255072 C28.0291304,8.51255072 29.2054783,7.33565217 29.2054783,5.88614493 C29.2054783,4.43608696 26.5790725,0.486289855 26.5790725,0.486289855 C26.5790725,0.486289855 23.9521159,4.43608696 23.9521159,5.88614493 C23.9521159,7.33785507 25.1268116,8.51255072 26.5790725,8.51255072 L26.5790725,8.51255072 Z" id="Fill-1"></path>
                        <path d="M17.3841739,8.51255072 C18.8342319,8.51255072 20.0111304,7.33565217 20.0111304,5.88614493 C20.0111304,4.43608696 17.3841739,0.486289855 17.3841739,0.486289855 C17.3841739,0.486289855 14.7577681,4.43608696 14.7577681,5.88614493 C14.7577681,7.33785507 15.9346667,8.51255072 17.3841739,8.51255072 L17.3841739,8.51255072 Z" id="Fill-2"></path>
                        <path d="M8.18982609,8.51255072 C9.63988406,8.51255072 10.8167826,7.33565217 10.8167826,5.88614493 C10.8167826,4.43608696 8.18982609,0.486289855 8.18982609,0.486289855 C8.18982609,0.486289855 5.56342029,4.43608696 5.56342029,5.88614493 C5.56342029,7.33785507 6.73976812,8.51255072 8.18982609,8.51255072 L8.18982609,8.51255072 Z" id="Fill-3"></path>
                        <path d="M31.8043478,21.6115362 L31.8043478,14.0583478 C31.8043478,12.4474783 30.5993623,11.1521739 28.9862899,11.1521739 L5.92910145,11.1521739 C4.31547826,11.1521739 3.30434783,12.4474783 3.30434783,14.0583478 L3.30434783,21.5856522 C1.23913043,21.6974493 0.413043478,22.9564058 0.413043478,24.4945797 L0.413043478,29.237971 C0.413043478,30.7502609 1.23913043,31.996 2.89130435,32.141942 L2.89130435,35.9518551 C2.89130435,36.7564638 3.59072464,37.5869565 4.39478261,37.5869565 L6.80255072,37.5869565 C7.60881159,37.5869565 8.26086957,36.7564638 8.26086957,35.9496522 L8.26086957,32.2173913 L26.8478261,32.2173913 L26.8478261,35.9496522 C26.8478261,36.7564638 27.2327826,37.5869565 28.0373913,37.5869565 L30.4446087,37.5869565 C31.2514203,37.5869565 31.8043478,36.7564638 31.8043478,35.9496522 L31.8043478,32.1182609 C33.4565217,31.9078841 34.2826087,30.6984928 34.2826087,29.2357681 L34.2826087,24.4945797 C34.2826087,23.0313043 33.4565217,21.8224638 31.8043478,21.6115362 L31.8043478,21.6115362 Z M5.36956522,15.1537391 C5.36956522,14.3469275 6.21713043,13.6304348 7.02173913,13.6304348 L27.8182029,13.6304348 C28.6250145,13.6304348 29.326087,14.3469275 29.326087,15.1537391 L29.326087,21.4782609 L5.36956522,21.4782609 L5.36956522,15.1537391 Z M5.63611594,29.5282029 C4.1866087,29.5282029 3.00971014,28.3513043 3.00971014,26.9017971 C3.00971014,25.4517391 4.1866087,24.2748406 5.63611594,24.2748406 C7.08617391,24.2748406 8.26307246,25.4517391 8.26307246,26.9017971 C8.26307246,28.3513043 7.08617391,29.5282029 5.63611594,29.5282029 L5.63611594,29.5282029 Z M29.1322319,29.5282029 C27.6827246,29.5282029 26.5058261,28.3513043 26.5058261,26.9017971 C26.5058261,25.4517391 27.6827246,24.2748406 29.1322319,24.2748406 C30.5822899,24.2748406 31.7591884,25.4517391 31.7591884,26.9017971 C31.7591884,28.3513043 30.5822899,29.5282029 29.1322319,29.5282029 L29.1322319,29.5282029 Z" id="Fill-4"></path>
                    </g>
                </g>
            </g>
        </g>
    </g>
</svg>