<?xml version="1.0" encoding="UTF-8" standalone="no"?>
<svg width="42px" height="32px" viewBox="0 0 42 32" version="1.1" xmlns="http://www.w3.org/2000/svg" xmlns:xlink="http://www.w3.org/1999/xlink">
    <!-- Generator: sketchtool 39.1 (31720) - http://www.bohemiancoding.com/sketch -->
    <title>EFC7FC4D-6480-4627-B643-0BD4D21C2F58</title>
    <desc>Created with sketchtool.</desc>
    <defs></defs>
    <g id="1.Main" stroke="none" stroke-width="1" fill="none" fill-rule="evenodd" opacity="0.6">
        <g id="1.0.2-Register-Screen-v4" transform="translate(-27.000000, -559.000000)" stroke="#4A4A4A" stroke-width="1.33333333" fill="#4A4A4A">
            <g id="Form" transform="translate(27.466667, 405.080000)">
                <g id="Email" transform="translate(0.533333, 123.920000)">
                    <path d="M39.9839864,31.6220767 C39.9783346,31.5724977 39.9707988,31.525725 39.9538433,31.4798877 C39.9397136,31.4368569 39.9199322,31.3994387 39.8973248,31.3610851 C39.8756594,31.3217961 39.853052,31.2862488 39.8238508,31.251637 C39.7927656,31.2132834 39.7541447,31.1833489 39.7136398,31.152479 C39.6929164,31.1356408 39.6778448,31.1131899 39.6542954,31.0991581 C39.6411078,31.0916745 39.6260362,31.0916745 39.6119066,31.0851263 C39.5695177,31.0617399 39.523361,31.049579 39.4762622,31.0364827 C39.4301055,31.0243218 39.3867747,31.0130964 39.339676,31.0093545 C39.3246044,31.0084191 39.3104748,31 39.2935192,31 L0.706480784,31 C0.689525245,31 0.675395629,31.0084191 0.65844009,31.01029 C0.614167295,31.0130964 0.571778448,31.0243218 0.527505652,31.0355472 C0.479464959,31.049579 0.43236624,31.0617399 0.387151469,31.0851263 C0.374905803,31.0916745 0.359834213,31.0916745 0.346646571,31.0991581 C0.322155237,31.1131899 0.308967596,31.1356408 0.286360211,31.152479 C0.245855313,31.1833489 0.208176338,31.2132834 0.177091183,31.251637 C0.146948003,31.2862488 0.124340618,31.3217961 0.102675207,31.3601497 C0.0800678222,31.3994387 0.0602863602,31.4368569 0.0452147702,31.4798877 C0.0310851545,31.525725 0.0235493595,31.5724977 0.0178975132,31.6220767 C0.0141296157,31.6492049 0,31.6735267 0,31.7015903 L0,60.2984097 C0,60.6856876 0.317445365,61 0.706480784,61 L39.2935192,61 C39.6834966,61 40,60.6856876 40,60.2984097 L40,31.7015903 C40,31.6735267 39.9877543,31.6492049 39.9839864,31.6220767 L39.9839864,31.6220767 Z M37.9935946,32.4031805 C35.8986436,35.4817587 29.189902,44.414406 20,47.5668849 C10.810098,44.414406 4.10229842,35.4817587 2.00640543,32.4031805 L37.9935946,32.4031805 L37.9935946,32.4031805 Z M1.41390354,34.0383536 C3.3675584,36.7998129 7.39920874,41.8615529 12.9530897,45.575304 C7.29935946,49.9663237 3.20459683,55.4518241 1.41390354,58.0888681 L1.41390354,34.0383536 L1.41390354,34.0383536 Z M2.10813866,59.5968195 C3.51921628,57.4471469 7.97663904,51.101029 14.2134514,46.3760524 C15.9410324,47.4218896 17.7995479,48.323667 19.7758101,48.97942 C19.7767521,48.9803555 19.778636,48.97942 19.7814619,48.9803555 C19.851168,49.0028064 19.924642,49.0149673 20,49.0149673 C20.073474,49.0149673 20.146948,49.0028064 20.2175961,48.9803555 C20.2185381,48.97942 20.220422,48.9803555 20.222306,48.97942 C22.1995102,48.323667 24.0542577,47.4228251 25.7808968,46.3788587 C32.0177091,51.1038354 36.4741899,57.4480823 37.8862095,59.5968195 L2.10813866,59.5968195 L2.10813866,59.5968195 Z M38.5860965,58.1000935 C36.801055,55.4677268 32.7034665,49.9756782 27.0422005,45.5781104 C32.5989073,41.8643592 36.6333836,36.7998129 38.5860965,34.0383536 L38.5860965,58.1000935 L38.5860965,58.1000935 Z" id="ic_email"></path>
                </g>
            </g>
        </g>
    </g>
</svg>