<?xml version="1.0" encoding="UTF-8" standalone="no"?>
<svg width="64px" height="64px" viewBox="0 0 64 64" version="1.1" xmlns="http://www.w3.org/2000/svg" xmlns:xlink="http://www.w3.org/1999/xlink">
    <!-- Generator: sketchtool 39.1 (31720) - http://www.bohemiancoding.com/sketch -->
    <title>FB8A0BFE-87CA-45BB-A02B-ED3A7E6AF408</title>
    <desc>Created with sketchtool.</desc>
    <defs></defs>
    <g id="2.Home" stroke="none" stroke-width="1" fill="none" fill-rule="evenodd">
        <g id="2.1.1-More-Filter" transform="translate(-28.000000, -380.000000)">
            <g id="Food-and-beverages" transform="translate(0.000000, 362.000000)">
                <g id="ic_FnB" transform="translate(28.000000, 18.000000)">
                    <circle id="Oval" fill="#0C78BE" cx="32" cy="32" r="32"></circle>
                    <g id="Page-1" transform="translate(22.000000, 13.000000)" fill="#FFFFFF">
                        <path d="M20.7089491,0.0758003161 C20.529392,-0.0211910094 20.3064042,-0.0259222936 20.1216614,0.0663377478 C19.9090451,0.172791642 14.8626497,2.74897587 13.3937824,8.23312564 C12.2717129,12.4120324 13.5506517,17.0788528 17.1917054,22.1058422 C16.9259351,23.7647488 15.401969,34.0842709 18.2223758,37.0921848 C18.7869757,37.6948322 19.490943,38 20.3089971,38 C20.3167757,38 20.4230839,37.9976344 20.4302143,37.9976344 C20.7471941,37.9863976 21,37.7480591 21,37.4570851 L21,0.542423217 C21,0.350806209 20.8885061,0.172791642 20.7089491,0.0758003161 L20.7089491,0.0758003161 Z" id="Fill-1"></path>
                        <path d="M9.97174051,9.84824153 L9.97174051,2.16088004 C9.97174051,1.56483058 9.45898606,1.08151598 8.82601644,1.08151598 C8.19366017,1.08151598 7.68090571,1.56483058 7.68090571,2.16088004 L7.68090571,9.45742733 C7.68090571,9.85749157 7.33866052,10.1800867 6.91668077,10.1800867 C6.492861,10.1800867 6.15000246,9.85749157 6.15000246,9.45742733 L6.15000246,2.0886141 C6.15000246,1.49256464 5.637248,1.00925004 5.00489173,1.00925004 C4.37253546,1.00925004 3.859781,1.49256464 3.859781,2.0886141 L3.859781,9.45742733 C3.859781,9.85749157 3.51692246,10.1800867 3.09310269,10.1800867 C2.66866957,10.1800867 2.32642437,9.85749157 2.32642437,9.45742733 L2.32642437,2.07994219 C2.32642437,1.4833146 1.81366992,1 1.1807003,1 C0.548344029,1 0.0355895729,1.4833146 0.0355895729,2.07994219 L0.0355895729,9.74649109 C-0.0723587336,11.1646379 -0.139213083,15.6769231 3.07163569,17.3055083 L2.67357631,34.8591938 C2.67357631,36.0403083 3.69172511,37 4.94478415,37 C6.19784318,37 7.21599199,36.0403083 7.21599199,34.8591938 L6.89276041,17.2870082 C10.0649686,15.6815481 10.0741687,11.3635137 9.97174051,9.84824153 L9.97174051,9.84824153 Z" id="Fill-2"></path>
                    </g>
                </g>
            </g>
        </g>
    </g>
</svg>