<?xml version="1.0" encoding="UTF-8" standalone="no"?>
<svg width="64px" height="64px" viewBox="0 0 64 64" version="1.1" xmlns="http://www.w3.org/2000/svg" xmlns:xlink="http://www.w3.org/1999/xlink">
    <!-- Generator: sketchtool 39.1 (31720) - http://www.bohemiancoding.com/sketch -->
    <title>827EE13B-28C1-4A45-9471-D8817EAADE86</title>
    <desc>Created with sketchtool.</desc>
    <defs></defs>
    <g id="2.Home" stroke="none" stroke-width="1" fill="none" fill-rule="evenodd">
        <g id="2.1.1-More-Filter" transform="translate(-28.000000, -784.000000)">
            <g id="Fitness" transform="translate(0.000000, 766.000000)">
                <g id="ic_Fitness" transform="translate(28.000000, 18.000000)">
                    <circle id="Oval" fill="#0C78BE" cx="32" cy="32" r="32"></circle>
                    <g id="Page-1" transform="translate(12.000000, 19.000000)" fill="#FFFFFF">
                        <path d="M9.5,26 C8.11916667,26 7,24.9490526 7,23.6541353 L7,2.34586466 C7,1.05094737 8.11916667,0 9.5,0 C10.88,0 12,1.05094737 12,2.34586466 L12,23.6541353 C12,24.9490526 10.88,26 9.5,26 L9.5,26 Z" id="Fill-19"></path>
                        <path d="M31.5,26 C30.1191667,26 29,24.9490526 29,23.6541353 L29,2.34586466 C29,1.05094737 30.1191667,0 31.5,0 C32.88,0 34,1.05094737 34,2.34586466 L34,23.6541353 C34,24.9490526 32.88,26 31.5,26 L31.5,26 Z" id="Fill-20"></path>
                        <path d="M36.5,23 C35.6712,23 35,22.3353846 35,21.5164835 L35,6.48351648 C35,5.66461538 35.6712,5 36.5,5 C37.328,5 38,5.66461538 38,6.48351648 L38,21.5164835 C38,22.3353846 37.328,23 36.5,23 L36.5,23 Z" id="Fill-21"></path>
                        <path d="M3.5,23 C2.672,23 2,22.3353846 2,21.5164835 L2,6.48351648 C2,5.66461538 2.672,5 3.5,5 C4.328,5 5,5.66461538 5,6.48351648 L5,21.5164835 C5,22.3353846 4.328,23 3.5,23 L3.5,23 Z" id="Fill-22"></path>
                        <path d="M1.5,20 C0.672,20 0,19.3026415 0,18.4433962 L0,10.5566038 C0,9.69735849 0.672,9 1.5,9 C2.328,9 3,9.69735849 3,10.5566038 L3,18.4433962 C3,19.3026415 2.328,20 1.5,20 L1.5,20 Z" id="Fill-23"></path>
                        <path d="M38.5,20 C37.6712,20 37,19.3026415 37,18.4433962 L37,10.5566038 C37,9.69735849 37.6712,9 38.5,9 C39.328,9 40,9.69735849 40,10.5566038 L40,18.4433962 C40,19.3026415 39.328,20 38.5,20 L38.5,20 Z" id="Fill-24"></path>
                        <path d="M30.0454545,17 L9.95454545,17 C8.32284848,17 7,15.656 7,14 C7,12.344 8.32284848,11 9.95454545,11 L30.0454545,11 C31.6763636,11 33,12.344 33,14 C33,15.656 31.6763636,17 30.0454545,17 L30.0454545,17 Z" id="Fill-25"></path>
                    </g>
                </g>
            </g>
        </g>
    </g>
</svg>