<?xml version="1.0" encoding="UTF-8" standalone="no"?>
<svg width="64px" height="64px" viewBox="0 0 64 64" version="1.1" xmlns="http://www.w3.org/2000/svg" xmlns:xlink="http://www.w3.org/1999/xlink">
    <!-- Generator: sketchtool 39.1 (31720) - http://www.bohemiancoding.com/sketch -->
    <title>BC77D15C-267B-4022-8706-450673326946</title>
    <desc>Created with sketchtool.</desc>
    <defs></defs>
    <g id="2.Home" stroke="none" stroke-width="1" fill="none" fill-rule="evenodd">
        <g id="2.1.1-More-Filter" transform="translate(-28.000000, -885.000000)">
            <g id="Fitness-Copy" transform="translate(0.000000, 867.000000)">
                <g id="ic_Hairdresser" transform="translate(28.000000, 18.000000)">
                    <circle id="Oval" fill="#0C78BE" cx="32" cy="32" r="32"></circle>
                    <g id="Page-1" transform="translate(14.000000, 13.000000)" fill="#FFFFFF">
                        <path d="M7.91446377,21.3295652 C5.13495652,23.5952464 2.56417391,26.1764928 0.344202899,28.9130435 L10.4444928,23.8573913 L7.91446377,21.3295652 Z" id="Fill-1"></path>
                        <path d="M34.2501159,10.7628116 C32.6497101,9.1624058 30.1196812,9.05886957 28.3964638,10.4511014 C27.0868406,10.8013623 23.6013043,13.369942 22.4761739,13.6282319 C22.7476812,12.4645507 25.4776232,8.78130435 25.6775362,7.58733333 C27.0025797,5.86631884 26.8803188,3.39246377 25.3052464,1.81573913 C23.5930435,0.103536232 20.817942,0.103536232 19.1035362,1.81573913 C17.3907826,3.52794203 17.3907826,6.30524638 19.1035362,8.018 C19.8002029,8.71466667 20.6758551,9.12330435 21.5834493,9.25272464 L19.7853333,11.8813333 L24.2252754,16.3218261 L26.8241449,14.5446377 C26.9618261,15.4313043 27.3682609,16.2827246 28.0506087,16.9650725 C29.7628116,18.6772754 32.5401159,18.6772754 34.2523188,16.9650725 C35.9628696,15.2523188 35.9628696,12.4750145 34.2501159,10.7628116 L34.2501159,10.7628116 Z M22.0416522,6.67973913 C20.9385507,6.67973913 20.0436232,5.78481159 20.0436232,4.68115942 C20.0436232,3.57750725 20.9385507,2.68257971 22.0416522,2.68257971 C23.1453043,2.68257971 24.0402319,3.57750725 24.0402319,4.68115942 C24.0402319,5.78481159 23.1453043,6.67973913 22.0416522,6.67973913 L22.0416522,6.67973913 Z M31.030029,15.8895072 C29.9263768,15.8895072 29.0314493,14.9945797 29.0314493,13.8909275 C29.0314493,12.7872754 29.9263768,11.8923478 31.030029,11.8923478 C32.1336812,11.8923478 33.0286087,12.7872754 33.0286087,13.8909275 C33.0286087,14.9945797 32.1336812,15.8895072 31.030029,15.8895072 L31.030029,15.8895072 Z" id="Fill-2"></path>
                        <path d="M7.18971014,35.7607536 C9.92571014,33.5402319 12.5097101,30.9716522 14.7748406,28.1904928 L12.2448116,25.6604638 L7.18971014,35.7607536 Z" id="Fill-3"></path>
                        <path d="M18.3848406,23.1238261 L17.0961449,21.8351304 L22.4745217,16.4573043 L21.2287826,15.2115652 L16.7392754,19.6994203 C16.4936522,19.9444928 16.1731304,20.0673043 15.8504058,20.0673043 C15.5276812,20.0673043 15.2071594,19.9444928 14.962087,19.6994203 C14.4713913,19.2087246 14.4713913,18.4129275 14.962087,17.9222319 L19.4515942,13.4327246 L18.4558841,12.4364638 L13.9658261,16.9281739 C13.7207536,17.1737971 13.4002319,17.296058 13.0775072,17.296058 C12.7547826,17.296058 12.4342609,17.1737971 12.1891884,16.9281739 C11.6984928,16.438029 11.6984928,15.6416812 12.1891884,15.1515362 L16.6808986,10.6614783 L15.6846377,9.66576812 L11.1929275,14.1552754 C10.9478551,14.4003478 10.6251304,14.5231594 10.3046087,14.5231594 C9.98188406,14.5231594 9.66136232,14.4003478 9.41628986,14.1552754 C8.9255942,13.6645797 8.9255942,12.8687826 9.41628986,12.3786377 L13.9057971,7.88857971 L12.9095362,6.89286957 L8.42002899,11.3823768 C8.17495652,11.6274493 7.85443478,11.7502609 7.53171014,11.7502609 C7.20898551,11.7502609 6.88846377,11.6274493 6.64284058,11.3823768 C6.15269565,10.8916812 6.15269565,10.0958841 6.64284058,9.60518841 L11.1328986,5.11568116 L9.79684058,3.77962319 L2.71947826,10.8553333 C1.78104348,11.7932174 1.78104348,13.3143188 2.71947826,14.2522029 L25.4385217,36.9717971 C25.9077391,37.4404638 26.5228986,37.6750725 27.138058,37.6750725 C27.7537681,37.6750725 28.3667246,37.4404638 28.8375942,36.9717971 C29.7754783,36.033913 29.7754783,34.5128116 28.8375942,33.5749275 L18.3848406,23.1238261 Z" id="Fill-4"></path>
                    </g>
                </g>
            </g>
        </g>
    </g>
</svg>