<?xml version="1.0" encoding="UTF-8" standalone="no"?>
<svg width="36px" height="36px" viewBox="0 0 36 36" version="1.1" xmlns="http://www.w3.org/2000/svg" xmlns:xlink="http://www.w3.org/1999/xlink">
    <!-- Generator: sketchtool 39.1 (31720) - http://www.bohemiancoding.com/sketch -->
    <title>E6CF134A-2A13-430C-B5F2-A5DC0EC6FFC0</title>
    <desc>Created with sketchtool.</desc>
    <defs></defs>
    <g id="2.Home" stroke="none" stroke-width="1" fill="none" fill-rule="evenodd">
        <g id="2.0.3-Sidebar-Settings" transform="translate(-148.000000, -570.000000)" fill="#FFFFFF">
            <g id="Help" transform="translate(120.000000, 528.000000)">
                <g id="ic_help" transform="translate(28.000000, 35.000000)">
                    <g id="icon" transform="translate(0.000000, 7.000000)">
                        <path d="M35.6485937,14.1650225 C35.515486,13.5522344 35.0629201,13.5256128 35.0629201,13.5256128 C34.6951486,13.4215917 34.3273771,13.3772225 33.9694655,13.3752505 C32.3904145,7.91389347 28.0861079,3.60958689 22.6227789,2.03053592 C22.620807,1.67262428 22.5764378,1.30288084 22.4724166,0.93510937 C22.4724166,0.93510937 22.447767,0.482543405 21.8349789,0.349435768 C20.5778512,0.077797591 19.2837492,0.024061545 18.000986,0.00286292138 C16.7147718,-0.0183357023 15.4280647,0.0763186173 14.1669931,0.349435768 C13.5542049,0.482543405 13.5275834,0.93510937 13.5275834,0.93510937 C13.4235622,1.30288084 13.379193,1.67262428 13.3772211,2.03053592 C7.91586403,3.60958689 3.61155745,7.91389347 2.03250648,13.3752505 C1.67459484,13.3772225 1.3048514,13.4215917 0.937079931,13.5256128 C0.937079931,13.5256128 0.484513966,13.5522344 0.351406329,14.1650225 C0.0797681517,15.4221502 0.0260321057,16.7162522 0.00286151708,17.9990154 C-0.0183371066,19.2852296 0.076317213,20.5719367 0.351406329,21.8330084 C0.484513966,22.4457965 0.937079931,22.472418 0.937079931,22.472418 C1.3048514,22.5764392 1.67262287,22.6208084 2.03250648,22.6227803 C3.61007848,28.0861093 7.91586403,32.3899229 13.3772211,33.9694669 C13.379193,34.3273785 13.4235622,34.697122 13.5275834,35.0629215 C13.5275834,35.0629215 13.5542049,35.5154874 14.1669931,35.6485951 C15.4241207,35.9217122 16.7182228,35.9739693 18.000986,35.9971399 C19.2872001,36.0183385 20.5719353,35.9236842 21.8330069,35.6485951 C22.447767,35.5154874 22.4724166,35.0629215 22.4724166,35.0629215 C22.5764378,34.697122 22.620807,34.3273785 22.6227789,33.9694669 C28.0861079,32.3918949 32.3904145,28.0861093 33.9694655,22.6227803 C34.3273771,22.6208084 34.6971206,22.5764392 35.0629201,22.472418 C35.0629201,22.472418 35.515486,22.4457965 35.6485937,21.8330084 C35.9222038,20.5758807 35.9739679,19.2817786 35.9971385,17.9990154 C36.0183371,16.7128013 35.9236828,15.4280661 35.6485937,14.1650225 L35.6485937,14.1650225 Z M14.2340399,5.25617766 C14.7852041,7.18771736 14.4115167,8.77071226 14.0974813,9.61619225 C12.1294602,10.5346349 10.5366055,12.1255177 9.61816281,14.0955107 C8.77465478,14.4095461 7.19165989,14.7847125 5.25814822,14.2320693 C6.52907965,9.92233981 9.92628234,6.52710909 14.2340399,5.25617766 L14.2340399,5.25617766 Z M14.2320679,30.7438252 C9.92431037,29.4709218 6.52907965,26.075691 5.25814822,21.7679335 C7.18968792,21.2147973 8.77071085,21.5904567 9.61619084,21.9025201 C10.5346335,23.8725131 12.1255163,25.4653679 14.0955093,26.3838106 C14.4095447,27.2273186 14.7852041,28.8103135 14.2320679,30.7438252 L14.2320679,30.7438252 Z M18.000986,24.2673991 C14.5387085,24.2673991 11.7326023,21.459814 11.7326023,17.9990154 C11.7326023,14.5367379 14.5387085,11.7306317 18.000986,11.7306317 C21.4632635,11.7306317 24.2693697,14.5367379 24.2693697,17.9990154 C24.2693697,21.461293 21.4632635,24.2673991 18.000986,24.2673991 L18.000986,24.2673991 Z M21.7699041,30.7438252 C21.2167679,28.8122854 21.5904553,27.2292905 21.9044907,26.3838106 C23.8744837,25.4653679 25.4688174,23.8725131 26.3857811,21.9025201 C27.2312611,21.5884847 28.812284,21.2133184 30.7457957,21.7679335 C29.4743713,26.075691 26.0776616,29.4724007 21.7699041,30.7438252 L21.7699041,30.7438252 Z M26.3857811,14.0955107 C25.4688174,12.1255177 23.8764557,10.532663 21.9064626,9.61422028 C21.5924272,8.77071226 21.2167679,7.18771736 21.7699041,5.25420569 C26.0776616,6.52563012 29.4743713,9.92233981 30.7457957,14.2300973 C28.812284,14.7832335 27.2292891,14.4095461 26.3857811,14.0955107 L26.3857811,14.0955107 Z" id="Page-1"></path>
                    </g>
                </g>
            </g>
        </g>
    </g>
</svg>