<?xml version="1.0" encoding="UTF-8" standalone="no"?>
<svg width="64px" height="64px" viewBox="0 0 64 64" version="1.1" xmlns="http://www.w3.org/2000/svg" xmlns:xlink="http://www.w3.org/1999/xlink">
    <!-- Generator: sketchtool 39.1 (31720) - http://www.bohemiancoding.com/sketch -->
    <title>6522CE2B-A1F9-4E1E-8754-B69CD4B5739C</title>
    <desc>Created with sketchtool.</desc>
    <defs></defs>
    <g id="2.Home" stroke="none" stroke-width="1" fill="none" fill-rule="evenodd">
        <g id="2.1.1-More-Filter" transform="translate(-28.000000, -481.000000)">
            <g id="Hotels" transform="translate(0.000000, 463.000000)">
                <g id="ic_Hotel" transform="translate(28.000000, 18.000000)">
                    <circle id="Oval" fill="#0C78BE" cx="32" cy="32" r="32"></circle>
                    <g id="Page-1" transform="translate(12.000000, 21.000000)" fill="#FFFFFF">
                        <path d="M35.1315942,9.82550725 L8.65275362,9.82550725 C6.43594203,9.82550725 4.65333333,11.6075362 4.65333333,13.8249275 L4.65333333,15.4324638 L35.1315942,15.4324638 L35.1315942,9.82550725 Z" id="Fill-1"></path>
                        <path d="M35.1315942,5.2173913 L32.8713043,5.2173913 C30.6544928,5.2173913 28.8724638,6.99942029 28.8724638,9.21623188 L35.1333333,9.21623188 L35.1333333,5.2173913 L35.1315942,5.2173913 Z" id="Fill-2"></path>
                        <path d="M3.99884058,22.2597101 L3.99884058,19.8684058 L36.0417391,19.8684058 L36.0417391,22.2597101 L39.5652174,22.2597101 L39.5652174,1.87072464 C39.5652174,1.04405797 38.9130435,0.348985507 38.0434783,0.348985507 L37.5228986,0.348985507 C36.6962319,0.348985507 36.0011594,1.00115942 36.0011594,1.87072464 L36.0011594,16.3043478 L3.99884058,16.3043478 L3.99884058,10.2602899 C3.99884058,9.43362319 3.34666667,8.73855072 2.47710145,8.73855072 L1.95652174,8.73855072 C1.12985507,8.73855072 0.434782609,9.39072464 0.434782609,10.2602899 L0.434782609,22.2597101 L3.99884058,22.2597101 Z" id="Fill-3"></path>
                    </g>
                </g>
            </g>
        </g>
    </g>
</svg>