<?xml version="1.0" encoding="UTF-8" standalone="no"?>
<svg width="48px" height="44px" viewBox="0 0 48 44" version="1.1" xmlns="http://www.w3.org/2000/svg" xmlns:xlink="http://www.w3.org/1999/xlink">
    <!-- Generator: sketchtool 39.1 (31720) - http://www.bohemiancoding.com/sketch -->
    <title>A02C1B1B-4AE9-40BC-8894-C5096082035E</title>
    <desc>Created with sketchtool.</desc>
    <defs></defs>
    <g id="2.Home" stroke="none" stroke-width="1" fill="none" fill-rule="evenodd">
        <g id="2.0.3.2-Account" transform="translate(-642.000000, -290.000000)" fill="#FFFFFF">
            <g id="Group-2" transform="translate(0.000000, 160.000000)">
                <g id="Change-Password-Copy" transform="translate(0.000000, 102.000000)">
                    <path d="M674.612367,59.1760506 L677.276892,61.7826856 C677.543345,62.0433491 677.863088,62.0433491 678.12954,61.7826856 L689.800161,50.3649289 C690.066613,50.1042654 690.066613,49.7921643 689.800161,49.5829384 L678.12954,38.1137441 C677.863088,37.8530806 677.543345,37.8530806 677.276892,38.1137441 L674.612367,40.7203791 C674.345915,40.9810427 674.345915,41.2938389 674.612367,41.5545024 L680.688195,47.4976303 L657.082634,47.4976303 C656.710311,47.4976303 656.496438,47.7582938 656.496438,48.07109 L656.496438,51.7718167 C656.496438,52.1353555 656.762891,52.3445814 657.082634,52.3445814 L680.743617,52.3445814 L674.612367,58.39406 C674.402047,58.6032859 674.402047,59.0217378 674.612367,59.1760506 L674.612367,59.1760506 Z M647.010018,72 L666.993957,72 C669.763642,72 672.003975,69.8118167 672.003975,67.0995261 L672.003975,57.9790837 C672.003975,57.6148499 671.684232,57.3541864 671.365199,57.3541864 L667.634864,57.3541864 C667.263251,57.3541864 666.996799,57.6662875 666.996799,57.9790837 L666.996799,65.1198736 C666.996799,66.2654028 666.091571,67.1023065 664.970339,67.1023065 L648.980345,67.1023065 C647.809375,67.1023065 646.954596,66.2167457 646.954596,65.1198736 L646.954596,34.8829068 C646.954596,33.7373776 647.859113,32.9004739 648.980345,32.9004739 L664.914917,32.9004739 C666.085887,32.9004739 666.941377,33.7860348 666.941377,34.8829068 L666.941377,42.0236967 C666.941377,42.3879305 667.260409,42.648594 667.579442,42.648594 L671.257197,42.648594 C671.628809,42.648594 671.895262,42.3364929 671.895262,42.0236967 L671.895262,32.9004739 C671.895262,30.1909637 669.658482,28 666.885244,28 L647.010018,28 C644.23678,28.0027804 642,30.1909637 642,32.9004739 L642,67.1509637 C642,69.8118167 644.23678,72 647.010018,72 L647.010018,72 Z" id="ic_logout"></path>
                </g>
            </g>
        </g>
    </g>
</svg>
