<?xml version="1.0" encoding="UTF-8" standalone="no"?>
<svg width="64px" height="64px" viewBox="0 0 64 64" version="1.1" xmlns="http://www.w3.org/2000/svg" xmlns:xlink="http://www.w3.org/1999/xlink">
    <!-- Generator: sketchtool 39.1 (31720) - http://www.bohemiancoding.com/sketch -->
    <title>1B0A5BE7-4651-404B-989D-C1364C1AF193</title>
    <desc>Created with sketchtool.</desc>
    <defs></defs>
    <g id="2.Home" stroke="none" stroke-width="1" fill="none" fill-rule="evenodd">
        <g id="2.1.1-More-Filter" transform="translate(-28.000000, -986.000000)">
            <g id="Fitness-Copy-2" transform="translate(0.000000, 968.000000)">
                <g id="ic_Laundry" transform="translate(28.000000, 18.000000)">
                    <circle id="Oval" fill="#0C78BE" cx="32" cy="32" r="32"></circle>
                    <g id="Page-1" transform="translate(18.000000, 13.000000)" fill="#FFFFFF">
                        <path d="M13.6021905,13.3663492 C9.7967619,13.3639365 6.70066667,16.457619 6.69825397,20.2630476 C6.69825397,24.0654603 9.79193651,27.1639683 13.5973651,27.166381 C17.4027937,27.1687937 20.4982857,24.0751111 20.4982857,20.2696825 C20.5006984,16.4648571 17.4070159,13.3687619 13.6021905,13.3663492 L13.6021905,13.3663492 Z" id="Fill-19"></path>
                        <path d="M26.4691111,7.20250794 L0.741904762,7.19104762 C0.341396825,7.19104762 0.0138730159,7.45463492 0.0138730159,7.77974603 L0,36.9468571 C0,37.2719683 0.325111111,37.5355556 0.728031746,37.5355556 L26.4546349,37.547619 C26.8575556,37.547619 27.1826667,37.2834286 27.1826667,36.9583175 L27.1971429,7.79422222 C27.1971429,7.46669841 26.8720317,7.20250794 26.4691111,7.20250794 L26.4691111,7.20250794 Z M13.5949524,30.603873 C7.88349206,30.6014603 3.25593651,25.9720952 3.2607619,20.2606349 C3.2631746,14.5491746 7.89555556,9.92403175 13.6070159,9.92644444 C19.3154603,9.92885714 23.9430159,14.5612381 23.9406032,20.2696825 C23.936381,25.9787302 19.3064127,30.6062857 13.5949524,30.603873 L13.5949524,30.603873 Z" id="Fill-20"></path>
                        <path d="M26.4715238,0.567587302 L0.74431746,0.558539683 C0.343809524,0.558539683 0.0162857143,0.605587302 0.0162857143,0.664698413 L0.0138730159,5.94911111 C0.0138730159,6.00822222 0.341396825,6.05768254 0.741904762,6.05768254 L26.4691111,6.06914286 C26.8720317,6.06914286 27.1971429,6.02209524 27.1971429,5.9635873 L27.1995556,0.67615873 C27.1995556,0.617047619 26.8744444,0.57 26.4715238,0.567587302 L26.4715238,0.567587302 Z" id="Fill-21"></path>
                    </g>
                </g>
            </g>
        </g>
    </g>
</svg>