<?xml version="1.0" encoding="UTF-8" standalone="no"?>
<svg width="41px" height="36px" viewBox="0 0 41 36" version="1.1" xmlns="http://www.w3.org/2000/svg" xmlns:xlink="http://www.w3.org/1999/xlink">
    <!-- Generator: sketchtool 39.1 (31720) - http://www.bohemiancoding.com/sketch -->
    <title>4BAEF483-6B3E-4497-8562-29D1AE088FEA</title>
    <desc>Created with sketchtool.</desc>
    <defs></defs>
    <g id="3.Move" stroke="none" stroke-width="1" fill="none" fill-rule="evenodd">
        <g id="3.1.3-Move-Map-view" transform="translate(-651.000000, -86.000000)" fill="#2457A7">
            <g id="app-bar" transform="translate(0.000000, 48.000000)">
                <path d="M654.214584,67.4544615 C652.439146,67.4544615 651,68.9198462 651,70.7272308 C651,72.5346154 652.439146,74 654.214584,74 C655.990022,74 657.428708,72.5346154 657.428708,70.7272308 C657.428708,68.9198462 655.990022,67.4544615 654.214584,67.4544615 M654.214584,38 C652.439146,38 651,39.4653846 651,41.2727692 C651,43.0801538 652.439146,44.5455385 654.214584,44.5455385 C655.990022,44.5455385 657.428708,43.0801538 657.428708,41.2727692 C657.428708,39.4653846 655.990022,38 654.214584,38 M654.214584,52.9607692 C652.439146,52.9607692 651,54.4261538 651,56.2335385 C651,58.0409231 652.439146,59.5063077 654.214584,59.5063077 C655.990022,59.5063077 657.428708,58.0409231 657.428708,56.2335385 C657.428708,54.4261538 655.990022,52.9607692 654.214584,52.9607692 M689.696629,68.4615385 L664.15409,68.4615385 C662.881708,68.4615385 661.850719,69.4949231 661.850719,70.7692308 C661.850719,72.0435385 662.881708,73.0769231 664.15409,73.0769231 L689.696629,73.0769231 C690.969011,73.0769231 692,72.0435385 692,70.7692308 C692,69.4949231 690.969011,68.4615385 689.696629,68.4615385 M689.696629,53.6923077 L664.15409,53.6923077 C662.881708,53.6923077 661.850719,54.7256923 661.850719,56 C661.850719,57.2743077 662.881708,58.3076923 664.15409,58.3076923 L689.696629,58.3076923 C690.969011,58.3076923 692,57.2743077 692,56 C692,54.7256923 690.969011,53.6923077 689.696629,53.6923077 M661.850719,41.2307692 C661.850719,39.9564615 662.881708,38.9230769 664.15409,38.9230769 L689.696629,38.9230769 C690.969011,38.9230769 692,39.9564615 692,41.2307692 C692,42.5050769 690.969011,43.5384615 689.696629,43.5384615 L664.15409,43.5384615 C662.881708,43.5384615 661.850719,42.5050769 661.850719,41.2307692" id="ic_list_view"></path>
            </g>
        </g>
    </g>
</svg>