<?xml version="1.0" encoding="UTF-8" standalone="no"?>
<svg width="72px" height="72px" viewBox="0 0 72 72" version="1.1" xmlns="http://www.w3.org/2000/svg" xmlns:xlink="http://www.w3.org/1999/xlink">
    <!-- Generator: sketchtool 39.1 (31720) - http://www.bohemiancoding.com/sketch -->
    <title>AD2E683B-5703-4A14-BA30-3E984B4D6276</title>
    <desc>Created with sketchtool.</desc>
    <defs></defs>
    <g id="2.Home" stroke="none" stroke-width="1" fill="none" fill-rule="evenodd">
        <g id="2.1.0-Building-Info" transform="translate(-620.000000, -701.000000)">
            <g id="All" transform="translate(0.000000, 642.000000)">
                <g id="ic_location" transform="translate(620.000000, 59.000000)">
                    <rect id="Rectangle-2" fill="#ECEFF1" x="0" y="0" width="72" height="72" rx="8"></rect>
                    <g id="Page-1" transform="translate(16.000000, 16.000000)" fill="#22B1D7">
                        <path d="M19.9980397,39.9380403 C9.0006895,39.9380403 0.0580392157,30.9985269 0.0580392157,19.9980397 C0.0580392157,9.0006895 8.99755255,0.0580392157 19.9980397,0.0580392157 C30.99539,0.0580392157 39.9380403,8.99755255 39.9380403,19.9980397 C39.9380403,30.99539 30.99539,39.9380403 19.9980397,39.9380403 L19.9980397,39.9380403 Z M19.9980397,3.58710405 C10.9393224,3.58710405 3.58710405,10.9393224 3.58710405,19.9980397 C3.58710405,29.0567571 10.9393224,36.4089755 19.9980397,36.4089755 C29.0567571,36.4089755 36.4089755,29.0567571 36.4089755,19.9980397 C36.4089755,10.9393224 29.0567571,3.58710405 19.9980397,3.58710405 L19.9980397,3.58710405 Z" id="Fill-1"></path>
                        <polygon id="Fill-2" points="9.11764706 20 28.1192157 11.6486275 20.1780392 31.5286275 18.5294118 21.412549"></polygon>
                    </g>
                </g>
            </g>
        </g>
    </g>
</svg>