<?xml version="1.0" encoding="UTF-8" standalone="no"?>
<svg width="94px" height="94px" viewBox="0 0 94 94" version="1.1" xmlns="http://www.w3.org/2000/svg" xmlns:xlink="http://www.w3.org/1999/xlink">
    <!-- Generator: sketchtool 39.1 (31720) - http://www.bohemiancoding.com/sketch -->
    <title>3EAF9F84-4A99-46AF-BFDD-7ED2C3676382</title>
    <desc>Created with sketchtool.</desc>
    <defs></defs>
    <g id="2.Home" stroke="none" stroke-width="1" fill="none" fill-rule="evenodd">
        <g id="2.0.1-Homescreen-v6" transform="translate(-85.000000, -864.000000)">
            <g id="Features" transform="translate(28.000000, 835.000000)">
                <g id="Live">
                    <g id="ic_Live" transform="translate(57.000000, 29.000000)">
                        <path d="M84.880597,82.7761194 C83.7245373,82.7761194 82.7761194,83.7245373 82.7761194,84.880597 L82.7761194,86.9850746 C82.7761194,88.1411343 81.8277015,89.0895522 80.6716418,89.0895522 L34.3731343,89.0895522 C33.2170746,89.0895522 32.2686567,88.1411343 32.2686567,86.9850746 L32.2686567,84.880597 C32.2686567,83.7245373 31.3202388,82.7761194 30.1641791,82.7761194 C29.0081194,82.7761194 28.0597015,83.7245373 28.0597015,84.880597 L28.0597015,86.9850746 C28.0597015,90.4602687 30.8979403,93.2985075 34.3731343,93.2985075 L80.6716418,93.2985075 C84.1468358,93.2985075 86.9850746,90.4602687 86.9850746,86.9850746 L86.9850746,84.880597 C86.9850746,83.7245373 86.0366567,82.7761194 84.880597,82.7761194 L84.880597,82.7761194 Z" id="Fill-1" fill="#22B1D7"></path>
                        <path d="M86.9850746,68.0447761 L28.0597015,68.0447761 C24.5845075,68.0447761 21.7462687,70.8830149 21.7462687,74.358209 C21.7462687,77.833403 24.5845075,80.6716418 28.0597015,80.6716418 L46.6815224,80.6716418 L58.9913134,84.7767761 C59.2045672,84.880597 59.4192239,84.880597 59.6268657,84.880597 C59.8345075,84.880597 60.0491642,84.880597 60.256806,84.7767761 L72.572209,80.6716418 L86.9850746,80.6716418 C90.4602687,80.6716418 93.2985075,77.833403 93.2985075,74.358209 C93.2985075,70.8830149 90.4602687,68.0447761 86.9850746,68.0447761 L86.9850746,68.0447761 Z M86.9850746,76.4626866 L72.2537313,76.4626866 C72.0460896,76.4626866 71.8314328,76.4626866 71.623791,76.5665075 L59.6268657,80.5678209 L47.6299403,76.5665075 C47.4222985,76.4626866 47.2076418,76.4626866 47,76.4626866 L28.0597015,76.4626866 C26.9036418,76.4626866 25.9552239,75.5142687 25.9552239,74.358209 C25.9552239,73.2021493 26.9036418,72.2537313 28.0597015,72.2537313 L86.9850746,72.2537313 C88.1411343,72.2537313 89.0895522,73.2021493 89.0895522,74.358209 C89.0895522,75.5142687 88.1411343,76.4626866 86.9850746,76.4626866 L86.9850746,76.4626866 Z" id="Fill-2" fill="#0C78BE"></path>
                        <path d="M21.7462687,89.0895522 L13.2245373,89.0895522 L9.22322388,25.9552239 L50.9957015,25.9552239 L49.2082985,47.6299403 C36.8999104,49.630597 28.0597015,56.0478507 28.0597015,63.8358209 C28.0597015,64.9918806 29.0081194,65.9402985 30.1641791,65.9402985 C31.3202388,65.9402985 32.2686567,64.9918806 32.2686567,63.8358209 C32.2686567,56.9962687 43.8432836,51.2089552 57.5223881,51.2089552 C71.2014925,51.2089552 82.7761194,56.9962687 82.7761194,63.8358209 C82.7761194,64.9918806 83.7245373,65.9402985 84.880597,65.9402985 C86.0366567,65.9402985 86.9850746,64.9918806 86.9850746,63.8358209 C86.9850746,54.3656716 74.0397313,47 57.5223881,47 C56.1516716,47 54.7879701,47.1038209 53.5210746,47.2076418 L55.2102687,25.9552239 L57.5223881,25.9552239 C58.6784478,25.9552239 59.6268657,25.006806 59.6268657,23.8507463 C59.6268657,22.6946866 58.6784478,21.7462687 57.5223881,21.7462687 L45.1031642,21.7462687 L47,3.01361194 C47.1038209,2.38367164 46.8961791,1.85755224 46.4738806,1.43525373 C46.0515821,0.909134328 45.5254627,0.701492537 44.8955224,0.701492537 L38.5820896,0.701492537 C37.5298507,0.701492537 36.5814328,1.54608955 36.4776119,2.59832836 L34.5807761,21.7462687 L2.80597015,21.7462687 C1.64991045,21.7462687 0.701492537,22.6946866 0.701492537,23.8507463 C0.701492537,25.006806 1.64991045,25.9552239 2.80597015,25.9552239 L5.01426866,25.9552239 L9.11940299,91.2978507 C9.22322388,92.4539104 10.0678209,93.2985075 11.2238806,93.2985075 L21.7462687,93.2985075 C22.9023284,93.2985075 23.8507463,92.3500896 23.8507463,91.1940299 C23.8507463,90.0379701 22.9023284,89.0895522 21.7462687,89.0895522 L21.7462687,89.0895522 Z M40.4789254,4.91044776 L42.583403,4.91044776 L40.8998209,21.7462687 L38.7953433,21.7462687 L40.4789254,4.91044776 Z" id="Fill-3" fill="#22B1D7"></path>
                    </g>
                </g>
            </g>
        </g>
    </g>
</svg>