<?xml version="1.0" encoding="UTF-8" standalone="no"?>
<svg width="26px" height="36px" viewBox="0 0 26 36" version="1.1" xmlns="http://www.w3.org/2000/svg" xmlns:xlink="http://www.w3.org/1999/xlink">
    <!-- Generator: sketchtool 39.1 (31720) - http://www.bohemiancoding.com/sketch -->
    <title>43F52AFA-6F25-447E-ABB9-5A9738321931</title>
    <desc>Created with sketchtool.</desc>
    <defs></defs>
    <g id="2.Home" stroke="none" stroke-width="1" fill="none" fill-rule="evenodd">
        <g id="2.1.2-Live-detail" transform="translate(-28.000000, -606.000000)" fill="#22B1D7">
            <g id="Basic" transform="translate(0.000000, 550.000000)">
                <g id="Location" transform="translate(28.000000, 56.000000)">
                    <path d="M12.9134348,16.6691739 C10.9886087,16.6691739 9.423,15.0589565 9.423,13.0797391 C9.423,11.1005217 10.9886087,9.49030435 12.9134348,9.49030435 C14.8382609,9.49030435 16.4046522,11.1005217 16.4046522,13.0797391 C16.4046522,15.0589565 14.8382609,16.6691739 12.9134348,16.6691739 M12.9134348,6.75117391 C9.47856522,6.75117391 6.68386957,9.59008696 6.68386957,13.0797391 C6.68386957,16.5693913 9.47856522,19.4083043 12.9134348,19.4083043 C16.3486957,19.4083043 19.1437826,16.5693913 19.1437826,13.0797391 C19.1437826,9.59008696 16.3486957,6.75117391 12.9134348,6.75117391 M12.9118696,32.1401739 C11.8541739,30.9662609 10.182913,29.0097391 8.51830435,26.649 C4.99343478,21.650087 3.13043478,17.1684783 3.13043478,13.6886087 C3.13043478,3.89191304 10.6180435,3.13043478 12.9130435,3.13043478 C21.9901304,3.13043478 22.6956522,11.2116522 22.6956522,13.6886087 C22.6956522,20.5783043 15.6862174,29.0551304 12.9118696,32.1401739 M21.6974348,3.10617391 C19.4497826,1.10347826 16.329913,0 12.9130435,0 C9.49617391,0 6.37630435,1.10347826 4.12865217,3.10617391 C1.42747826,5.51347826 0,9.17256522 0,13.6886087 C0,23.5252174 11.3200435,35.0514783 11.8017391,35.537087 C12.0956087,35.8336957 12.495913,36 12.9130435,36 C13.3301739,36 13.7304783,35.8336957 14.0243478,35.537087 C14.5060435,35.0514783 25.826087,23.5252174 25.826087,13.6886087 C25.826087,9.17256522 24.3986087,5.51347826 21.6974348,3.10617391" id="location"></path>
                </g>
            </g>
        </g>
    </g>
</svg>