<?xml version="1.0" encoding="UTF-8" standalone="no"?>
<svg width="44px" height="43px" viewBox="0 0 44 43" version="1.1" xmlns="http://www.w3.org/2000/svg" xmlns:xlink="http://www.w3.org/1999/xlink">
    <!-- Generator: sketchtool 39.1 (31720) - http://www.bohemiancoding.com/sketch -->
    <title>89BBFD0D-CEAA-4643-8C6B-40CDEA1D7160</title>
    <desc>Created with sketchtool.</desc>
    <defs></defs>
    <g id="1.Main" stroke="none" stroke-width="1" fill="none" fill-rule="evenodd">
        <g id="1.0.1-Login-Screen-v4" transform="translate(-418.000000, -978.000000)" fill="#FFFFFF">
            <g id="Form" transform="translate(27.466667, 406.080000)">
                <g id="btn_In" transform="translate(342.533333, 541.920000)">
                    <g id="Group" transform="translate(48.000000, 29.666667)">
                        <g id="ic_Linkedin" transform="translate(0.000000, 0.666667)">
                            <path d="M5.42321569,9.89762452 C8.41673412,9.89762452 10.8435325,7.6845031 10.8435325,4.95147226 C10.8435325,2.21602324 8.41673412,0 5.42321569,0 C2.42679843,0 0,2.21602324 0,4.95147226 C0,7.6845031 2.42679843,9.89762452 5.42321569,9.89762452" id="Fill-182"></path>
                            <polygon id="Fill-183" points="1.24235294 41.7153585 10.9679059 41.7153585 10.9679059 13.6658824 1.24235294 13.6658824"></polygon>
                            <path d="M24.6178447,26.1148 C24.6178447,22.8981325 26.1397271,19.7525596 29.7787169,19.7525596 C33.4177067,19.7525596 34.3124769,22.8981325 34.3124769,26.0379018 L34.3124769,41.3570934 L43.9945475,41.3570934 L43.9945475,25.4115923 C43.9945475,14.3334106 37.4461051,12.4235294 33.4177067,12.4235294 C29.3926902,12.4235294 27.1726745,13.7849666 24.6178447,17.0838524 L24.6178447,13.3076173 L14.9082353,13.3076173 L14.9082353,41.3570934 L24.6178447,41.3570934 L24.6178447,26.1148 Z" id="Fill-184"></path>
                        </g>
                    </g>
                </g>
            </g>
        </g>
    </g>
</svg>