<?xml version="1.0" encoding="UTF-8" standalone="no"?>
<svg width="40px" height="36px" viewBox="0 0 40 36" version="1.1" xmlns="http://www.w3.org/2000/svg" xmlns:xlink="http://www.w3.org/1999/xlink">
    <!-- Generator: sketchtool 39.1 (31720) - http://www.bohemiancoding.com/sketch -->
    <title>945403CB-913F-4277-B2BD-2BB1AAE4856F</title>
    <desc>Created with sketchtool.</desc>
    <defs></defs>
    <g id="3.Move" stroke="none" stroke-width="1" fill="none" fill-rule="evenodd">
        <g id="3.1.1-Move-Taxi" transform="translate(-652.000000, -86.000000)" fill="#2457A7">
            <g id="app-bar" transform="translate(0.000000, 48.000000)">
                <path d="M688.956522,70.0013659 L682.869565,67.0980976 L682.869565,41.9894146 L688.956522,44.8926829 L688.956522,70.0013659 Z M673.73913,44.8926829 L679.826087,41.9894146 L679.826087,67.0980976 L673.73913,70.0013659 L673.73913,44.8926829 Z M655.043478,44.8926829 L661.130435,41.9894146 L661.130435,67.0980976 L655.043478,70.0013659 L655.043478,44.8926829 Z M670.26087,70.0013659 L664.608696,67.0980976 L664.608696,41.9898537 L670.26087,44.8926829 L670.26087,70.0013659 Z M691.221739,42.4916585 L682.045217,38.1365366 C682.016522,38.1229268 682.013043,38.1194146 681.983913,38.107561 C681.922609,38.0834146 681.875217,38.0636585 681.811739,38.0474146 C681.749565,38.0316098 681.695217,38.0193171 681.632174,38.0114146 C681.569565,38.0035122 681.51087,38 681.446957,38 C681.383043,38 681.321739,38.0030732 681.258261,38.0114146 C681.195652,38.0193171 681.135652,38.0316098 681.073913,38.0474146 C681.010435,38.0636585 680.949565,38.0834146 680.887826,38.107561 C680.85913,38.1194146 680.828261,38.1229268 680.799565,38.1365366 L672.219565,42.1847805 L663.64,38.1365366 C663.611304,38.1229268 663.58,38.1194146 663.55087,38.107561 C663.489565,38.0834146 663.428696,38.0636585 663.365652,38.0474146 C663.303478,38.0316098 663.242174,38.0193171 663.17913,38.0114146 C663.116087,38.0035122 663.053913,38 662.990435,38 C662.926087,38 662.863478,38.0035122 662.799565,38.0114146 C662.737391,38.0193171 662.676522,38.0316098 662.614783,38.0474146 C662.551304,38.0636585 662.49,38.0834146 662.428261,38.107561 C662.39913,38.1194146 662.368261,38.1229268 662.339565,38.1365366 L652.997826,42.4916585 C652.456087,42.7471707 652,43.2972683 652,43.9018049 L652,72.4440976 C652,72.9757561 652.378261,73.4709756 652.821739,73.7563415 C653.072609,73.9179024 653.414783,74 653.703478,74 C653.924783,74 654.174348,73.9517073 654.381304,73.8542439 L662.975652,69.806 L671.561739,73.8542439 C671.564348,73.855561 671.570435,73.855561 671.573043,73.856878 C671.663478,73.8990244 671.759565,73.9293171 671.855217,73.9530244 C671.878261,73.9582927 671.901739,73.963122 671.925217,73.9679512 C672.022174,73.9868293 672.120435,74 672.21913,74 C672.317391,74 672.415217,73.9868293 672.512174,73.9679512 C672.535652,73.963122 672.558696,73.9582927 672.581739,73.9525854 C672.677391,73.9293171 672.771739,73.8990244 672.862609,73.856439 C672.864783,73.855561 672.867391,73.855122 672.869565,73.8542439 L681.45,69.806 L690.03087,73.8542439 C690.237826,73.9517073 690.46,74 690.681304,74 C690.969565,74 691.146957,73.9179024 691.397826,73.7563415 C691.841304,73.4709756 692,72.9757561 692,72.4440976 L692,43.9018049 C692,43.2972683 691.763478,42.7471707 691.221739,42.4916585 L691.221739,42.4916585 Z" id="ic_map_view"></path>
            </g>
        </g>
    </g>
</svg>