<?xml version="1.0" encoding="UTF-8" standalone="no"?>
<svg width="37px" height="48px" viewBox="0 0 37 48" version="1.1" xmlns="http://www.w3.org/2000/svg" xmlns:xlink="http://www.w3.org/1999/xlink">
    <!-- Generator: sketchtool 39.1 (31720) - http://www.bohemiancoding.com/sketch -->
    <title>5CA62703-8939-46DF-B53A-B85529F928CE</title>
    <desc>Created with sketchtool.</desc>
    <defs></defs>
    <g id="2.Home" stroke="none" stroke-width="1" fill="none" fill-rule="evenodd">
        <g id="2.0.1-Homescreen-v6" transform="translate(-59.000000, -664.000000)" fill="#0C78BE">
            <g id="Status" transform="translate(28.000000, 511.000000)">
                <g id="METRO" transform="translate(0.000000, 128.000000)">
                    <g id="ic_metro">
                        <path d="M59.864,59.9045106 C64.0532766,58.8988936 66.2020426,55.7526809 66.2020426,50.5959149 L66.2020426,34.6381277 C66.2020426,28.2551489 62.9148936,25 56.5319149,25 L43.7659574,25 C37.3829787,25 34.0318298,28.2551489 34.0318298,34.6381277 L34.0318298,50.5959149 C34.0318298,55.1725957 35.7659574,58.1649362 39.0932766,59.4789787 L31,73 L67.7019574,73 L59.864,59.9045106 Z M59.7230638,56.9788936 C57.9603404,56.9788936 56.5319149,55.5504681 56.5319149,53.7870638 C56.5319149,52.0236596 57.9603404,50.5959149 59.7230638,50.5959149 C61.4864681,50.5959149 62.9148936,52.0236596 62.9148936,53.7870638 C62.9148936,55.5504681 61.4864681,56.9788936 59.7230638,56.9788936 L59.7230638,56.9788936 Z M37.6062979,33.0422128 C37.6062979,28.2551489 43.9892766,28.2551489 50.3722553,28.2551489 C56.755234,28.2551489 63.1382128,28.2551489 63.1382128,33.0422128 L63.1382128,42.5108085 C63.1382128,43.4524255 61.7710638,44.4042553 60.3617021,44.4042553 L39.9361702,44.4042553 C38.5268085,44.4042553 37.6062979,43.4524255 37.6062979,42.5108085 L37.6062979,33.0422128 Z M37.3829787,53.7870638 C37.3829787,52.0236596 38.8114043,50.5959149 40.5741277,50.5959149 C42.3375319,50.5959149 43.7659574,52.0236596 43.7659574,53.7870638 C43.7659574,55.5504681 42.3375319,56.9788936 40.5741277,56.9788936 C38.8114043,56.9788936 37.3829787,55.5504681 37.3829787,53.7870638 L37.3829787,53.7870638 Z M43.7659574,60.2340426 L56.5319149,60.2340426 C56.6517447,60.2340426 56.7634043,60.2258723 56.8825532,60.2231489 L57.8085106,61.7659574 L40.8934468,61.7659574 L41.88,60.1196596 C42.4784681,60.1891064 43.100766,60.2340426 43.7659574,60.2340426 L43.7659574,60.2340426 Z M39.9361702,63.2978723 L58.7657872,63.2978723 L60.6810213,66.3617021 L38.0209362,66.3617021 L39.9361702,63.2978723 Z M50.1489362,71.4680851 L35.1491064,71.4680851 L37.0636596,68.4042553 L61.6382979,68.4042553 L63.5528511,71.4680851 L50.1489362,71.4680851 Z" id="Page-1"></path>
                    </g>
                </g>
            </g>
        </g>
    </g>
</svg>