<?xml version="1.0" encoding="UTF-8" standalone="no"?>
<svg width="94px" height="94px" viewBox="0 0 94 94" version="1.1" xmlns="http://www.w3.org/2000/svg" xmlns:xlink="http://www.w3.org/1999/xlink">
    <!-- Generator: sketchtool 39.1 (31720) - http://www.bohemiancoding.com/sketch -->
    <title>D3E79C45-5267-4B16-92DC-A34AAC147D4E</title>
    <desc>Created with sketchtool.</desc>
    <defs></defs>
    <g id="2.Home" stroke="none" stroke-width="1" fill="none" fill-rule="evenodd">
        <g id="2.0.1-Homescreen-v6" transform="translate(-539.000000, -864.000000)">
            <g id="Features" transform="translate(28.000000, 835.000000)">
                <g id="Move" transform="translate(454.000000, 0.000000)">
                    <g id="ic_move" transform="translate(57.000000, 29.000000)">
                        <path d="M55,17.5 C55,12.825 51.175,9 46.5,9 C41.825,9 38,12.825 38,17.5 C38,22.175 41.825,26 46.5,26 C51.175,26 55,22.175 55,17.5 L55,17.5 Z M42.25,17.5 C42.25,15.1625 44.1625,13.25 46.5,13.25 C48.8375,13.25 50.75,15.1625 50.75,17.5 C50.75,19.8375 48.8375,21.75 46.5,21.75 C44.1625,21.75 42.25,19.8375 42.25,17.5 L42.25,17.5 Z" id="Shape" fill="#0C78BE"></path>
                        <path d="M92.3977273,25.7431818 L64.0909091,17.625 L64.0909091,17.0909091 C64.0909091,7.69090909 56.4,0 47,0 C37.6,0 29.9090909,7.69090909 29.9090909,17.1977273 C29.9090909,19.5477273 30.4431818,22.325 31.1909091,25.3159091 L2.67045455,17.1977273 C2.02954545,16.9840909 1.28181818,17.0909091 0.747727273,17.5181818 C0.320454545,17.9454545 0,18.5863636 0,19.2272727 L0,83.3181818 C0,84.2795455 0.640909091,85.1340909 1.60227273,85.3477273 L31.5113636,93.8931818 C31.6181818,94 31.8318182,94 32.0454545,94 C32.4727273,94 33.0068182,93.8931818 33.3272727,93.5727273 C33.8613636,93.1454545 34.1818182,92.5045455 34.1818182,91.8636364 L34.1818182,77.55 L47.2136364,85.4545455 L39.95,87.5909091 C38.775,87.9113636 38.1340909,89.0863636 38.5613636,90.2613636 C38.8818182,91.4363636 40.0568182,92.0772727 41.2318182,91.65 L61.9545455,85.5613636 L91.2227273,93.8931818 C91.4363636,94 91.65,94 91.8636364,94 C92.2909091,94 92.825,93.8931818 93.1454545,93.5727273 C93.6795455,93.1454545 94,92.5045455 94,91.8636364 L94,27.7727273 C94,26.8113636 93.3590909,25.9568182 92.3977273,25.7431818 L92.3977273,25.7431818 Z M89.7272727,55.6522727 L70.7136364,41.7659091 L80.8613636,26.8113636 L80.8613636,26.8113636 L89.7272727,29.375 L89.7272727,55.6522727 L89.7272727,55.6522727 Z M76.4818182,25.6363636 L64.0909091,43.7954545 L64.0909091,22.1113636 L76.4818182,25.6363636 L76.4818182,25.6363636 Z M47,4.27272727 C54.05,4.27272727 59.8181818,10.0409091 59.8181818,17.0909091 C59.8181818,26.8113636 49.2431818,46.8931818 47,50.9522727 C44.7568182,47 34.1818182,26.9181818 34.1818182,17.1977273 C34.1818182,10.0409091 39.95,4.27272727 47,4.27272727 L47,4.27272727 Z M29.9090909,88.9795455 L4.27272727,81.6090909 L4.27272727,59.3909091 L29.9090909,74.9863636 L29.9090909,88.9795455 L29.9090909,88.9795455 Z M32.0454545,34.1818182 C30.8704545,34.1818182 29.9090909,35.1431818 29.9090909,36.3181818 L29.9090909,69.9659091 L4.27272727,54.3704545 L4.27272727,22.1113636 L31.5113636,29.9090909 C31.9386364,30.0159091 32.2590909,30.0159091 32.6863636,29.9090909 C36.6386364,41.3386364 43.6886364,53.6227273 43.7954545,53.8363636 C44.5431818,54.9045455 45.7181818,55.5454545 47,55.5454545 C48.2818182,55.5454545 49.5636364,54.9045455 50.2045455,53.8363636 C50.3113636,53.7295455 55.7590909,44.1159091 59.8181818,33.9681818 L59.8181818,50.0977273 L41.5522727,77.0159091 L34.1818182,72.5295455 L34.1818182,36.3181818 C34.1818182,35.1431818 33.2204545,34.1818182 32.0454545,34.1818182 L32.0454545,34.1818182 Z M62.4886364,81.2886364 C62.0613636,81.1818182 61.6340909,81.1818182 61.3136364,81.2886364 L52.6613636,83.8522727 C52.5545455,83.7454545 52.5545455,83.6386364 52.3409091,83.6386364 L45.1840909,79.2590909 L59.8181818,57.6818182 L59.8181818,74.7727273 C59.8181818,75.9477273 60.7795455,76.9090909 61.9545455,76.9090909 C63.1295455,76.9090909 64.0909091,75.9477273 64.0909091,74.7727273 L64.0909091,51.3795455 L68.2568182,45.2909091 L89.7272727,60.8863636 L89.7272727,88.9795455 L62.4886364,81.2886364 L62.4886364,81.2886364 Z" id="Shape" fill="#22B1D7"></path>
                    </g>
                </g>
            </g>
        </g>
    </g>
</svg>