<?xml version="1.0" encoding="UTF-8" standalone="no"?>
<svg width="30px" height="40px" viewBox="0 0 30 40" version="1.1" xmlns="http://www.w3.org/2000/svg" xmlns:xlink="http://www.w3.org/1999/xlink">
    <!-- Generator: sketchtool 39.1 (31720) - http://www.bohemiancoding.com/sketch -->
    <title>064D6A22-6BEE-44BB-B5F6-85A646A48CF1</title>
    <desc>Created with sketchtool.</desc>
    <defs></defs>
    <g id="1.Main" stroke="none" stroke-width="1" fill="none" fill-rule="evenodd" opacity="0.6">
        <g id="1.0.2-Register-Screen-v4" transform="translate(-27.000000, -431.000000)" stroke="#4A4A4A" stroke-width="1.33333333" fill="#4A4A4A">
            <g id="Form" transform="translate(27.466667, 405.080000)">
                <g id="Name" transform="translate(0.533333, 0.920000)">
                    <path d="M13.4565117,45.4177888 C18.8477143,45.4177888 23.2330539,41.0617595 23.2330539,35.7093553 C23.2330539,30.3560293 18.8477143,26 13.4565117,26 C8.06809289,26 3.68368118,30.3560293 3.68368118,35.7093553 C3.68368118,41.0617595 8.06809289,45.4177888 13.4565117,45.4177888 L13.4565117,45.4177888 Z M13.4565117,27.3825738 C18.0803262,27.3825738 21.8411772,31.1182884 21.8411772,35.7093553 C21.8411772,40.2995004 18.0803262,44.035215 13.4565117,44.035215 C8.83548093,44.035215 5.07555791,40.2995004 5.07555791,35.7093553 C5.07555791,31.1182884 8.83548093,27.3825738 13.4565117,27.3825738 L13.4565117,27.3825738 Z M27.9821373,63.1534461 C27.3678557,60.4942957 25.1909605,52.5979556 23.570816,50.5028954 C21.0320328,46.3017143 15.6983612,46.8307793 15.5471106,46.8501353 L11.1979597,46.8501353 C11.0179437,46.8538222 6.71518871,46.7349208 4.19310806,50.3342214 C2.79195215,52.3352666 0.738470003,59.9772131 0.0174778535,63.1562112 C-0.0678905863,63.5285844 0.167800541,63.8981925 0.542679342,63.9820687 C0.918486061,64.06871 1.29058111,63.8327507 1.37409371,63.4603775 C2.13313049,60.1210008 4.13743299,52.8357583 5.33630282,51.1232102 C7.41391083,48.1571284 11.1172309,48.2345526 11.1738339,48.2327091 L15.621344,48.2290223 C15.6695957,48.2207268 20.329599,47.7792249 22.396072,51.2457984 C22.4127745,51.2725282 22.430405,51.2992579 22.4498912,51.3232225 C23.7183549,52.9141042 25.8423588,60.0712281 26.6255215,63.4631426 C26.698827,63.782978 26.9864815,63.9995813 27.3029015,63.9995813 C27.3548649,63.9995813 27.4068283,63.994051 27.4587917,63.9820687 C27.8336705,63.8972708 28.0684337,63.5258193 27.9821373,63.1534461 L27.9821373,63.1534461 Z" id="ic_name"></path>
                </g>
            </g>
        </g>
    </g>
</svg>