<?xml version="1.0" encoding="UTF-8" standalone="no"?>
<svg width="50px" height="50px" viewBox="0 0 50 50" version="1.1" xmlns="http://www.w3.org/2000/svg" xmlns:xlink="http://www.w3.org/1999/xlink">
    <!-- Generator: sketchtool 39.1 (31720) - http://www.bohemiancoding.com/sketch -->
    <title>0D32018C-358E-4919-9F66-C2F1DFB7FFDE</title>
    <desc>Created with sketchtool.</desc>
    <defs></defs>
    <g id="2.Home" stroke="none" stroke-width="1" fill="none" fill-rule="evenodd">
        <g id="2.1.2-Live-detail" transform="translate(-200.000000, -1727.000000)" fill="#FFFFFF">
            <g id="btn_Call" transform="translate(0.000000, 1700.000000)">
                <g id="Group" transform="translate(200.000000, 27.000000)">
                    <path d="M33.2904456,33.2871711 C23.0048586,43.5744248 11.4726011,46.3705445 9.50592844,45.4233193 L4.47035749,39.6360794 C4.47202416,39.6305239 4.47369083,39.6249683 4.47591306,39.6194127 L11.7242686,33.8777285 L13.673719,36.808293 C13.7120524,36.866071 13.7531636,36.9221822 13.7964971,36.9755157 C14.4559436,37.7905182 15.4281688,38.2716308 16.5337277,38.3294088 C17.6115088,38.3871867 20.8859632,38.5582984 29.723768,29.7188269 C31.9093303,27.5327091 38.5604617,20.8804665 38.3321277,16.5287866 C38.2737942,15.4221165 37.7932371,14.4498913 36.9787902,13.7898893 C36.9249012,13.7460003 36.8693454,13.7054446 36.8115675,13.6671111 L33.8804474,11.7165496 L39.6215761,4.46874968 C39.6276872,4.46652745 39.6337983,4.46430522 39.640465,4.46208299 L45.4243716,9.49876506 C46.3715967,11.4665489 43.5765882,22.9982508 33.2904456,33.2871711 M48.6038258,6.38097775 C48.5677145,6.34486652 48.5299366,6.30986642 48.4916032,6.27653298 L42.5210294,1.07707264 C41.6999158,0.295959141 40.5404678,-0.0895975931 39.3254641,0.0176249569 C38.2421274,0.11206969 37.1943464,0.593737829 36.4504553,1.33818455 C36.3904551,1.39874029 36.3337882,1.46207382 36.2810103,1.52874069 L30.4159924,8.93265221 C28.8848766,10.5782128 28.9198767,13.1637763 30.5204371,14.7665589 C30.6248819,14.8710037 30.7393267,14.9643373 30.8615493,15.0460042 L33.8604473,17.0421215 C33.6221133,18.0815691 32.0571085,21.098245 26.5815362,26.5754839 C21.1054083,32.0527229 18.0881769,33.6182832 17.0487293,33.8571729 L15.0537232,30.8582748 C14.9720563,30.7354967 14.8787226,30.6210519 14.7742779,30.5171627 C13.1714952,28.9149355 10.5859317,28.8799354 8.94092671,30.4121623 L1.53757074,36.2766247 C1.46979276,36.3305138 1.40590367,36.3877362 1.34479237,36.4488475 C-0.34576835,38.1427415 -0.454657571,40.8994166 1.08756937,42.5194216 L6.28480748,48.4911065 C6.31814091,48.5299955 6.35314102,48.5677734 6.38925224,48.6038846 C7.41592205,49.6305544 8.95592676,50 10.6425986,50 C13.688719,50 17.2115076,48.7933296 19.0426243,48.0733274 C22.5820795,46.6805454 29.5476564,43.3160907 36.4326774,36.4299585 C41.5354708,31.326054 45.6699279,25.1488129 48.0738241,19.036572 C49.1927164,16.1915633 51.4849457,9.26265322 48.6038258,6.38097775" id="phonecall" transform="translate(25.000132, 25.000000) scale(-1, 1) translate(-25.000132, -25.000000) "></path>
                </g>
            </g>
        </g>
    </g>
</svg>