<?xml version="1.0" encoding="UTF-8" standalone="no"?>
<svg width="72px" height="72px" viewBox="0 0 72 72" version="1.1" xmlns="http://www.w3.org/2000/svg" xmlns:xlink="http://www.w3.org/1999/xlink">
    <!-- Generator: sketchtool 39.1 (31720) - http://www.bohemiancoding.com/sketch -->
    <title>9AE069B3-0056-4FE3-8563-B1B54E2BA9FC</title>
    <desc>Created with sketchtool.</desc>
    <defs></defs>
    <g id="2.Home" stroke="none" stroke-width="1" fill="none" fill-rule="evenodd">
        <g id="2.1.0-Building-Info" transform="translate(-620.000000, -856.000000)">
            <g id="All-Copy" transform="translate(0.000000, 832.000000)">
                <g id="ic_phone" transform="translate(620.000000, 24.000000)">
                    <rect id="Rectangle-2" fill="#ECEFF1" x="0" y="0" width="72" height="72" rx="8"></rect>
                    <path d="M27.3436251,41.617336 C32.9945277,48.5996787 46.765635,55.289178 50.0896954,53.7868204 C53.4137558,52.2838163 54.1260544,49.0340953 53.9829616,47.5317377 C53.8392355,46.0293801 46.2907692,41.4234 44.3913062,40.5493951 C42.4918431,39.6760366 40.3080937,42.4887551 39.2621227,43.7008552 C38.1686651,44.8651176 33.9917458,41.3244926 32.1859896,39.5318775 C32.1859896,39.5318775 27.4373319,34.1023158 28.5307895,32.9386997 C29.6236139,31.7744372 32.3297156,29.4484981 31.3799841,27.5569755 C30.4302526,25.6660995 25.6315757,18.1025952 24.1132715,18.0069201 C22.6418208,17.911245 19.5083399,18.7820177 18.1774494,22.2237354 C16.8465589,25.6660995 23.2103934,38.8046175 30.2865265,44.2839561" id="Page-1" fill="#22B1D7"></path>
                </g>
            </g>
        </g>
    </g>
</svg>