<?xml version="1.0" encoding="UTF-8" standalone="no"?>
<svg width="36px" height="36px" viewBox="0 0 36 36" version="1.1" xmlns="http://www.w3.org/2000/svg" xmlns:xlink="http://www.w3.org/1999/xlink">
    <!-- Generator: sketchtool 39.1 (31720) - http://www.bohemiancoding.com/sketch -->
    <title>ED133C1E-7B6B-4828-8906-09D518A51180</title>
    <desc>Created with sketchtool.</desc>
    <defs></defs>
    <g id="2.Home" stroke="none" stroke-width="1" fill="none" fill-rule="evenodd">
        <g id="2.1.2-Live-detail" transform="translate(-28.000000, -711.000000)" fill="#22B1D7">
            <g id="Basic" transform="translate(0.000000, 550.000000)">
                <g id="Open-Copy-2" transform="translate(28.000000, 161.000000)">
                    <path d="M23.9691208,23.9667632 C16.5634982,31.3735859 8.26027281,33.386792 6.84426848,32.7047899 L3.21865739,28.5379772 C3.21985739,28.5339772 3.2210574,28.5299772 3.2226574,28.5259771 L8.44147336,24.3919645 L9.84507765,26.501971 C9.87267774,26.5435711 9.90227783,26.5839712 9.93347792,26.6223713 C10.4082794,27.2091731 11.1082815,27.5555742 11.9042839,27.5971743 C12.6802863,27.6387744 15.0378935,27.7619748 21.401113,21.3975554 C22.9747178,19.8235505 27.7635324,15.0339359 27.5991319,11.9007263 C27.5571318,11.1039239 27.2111307,10.4039217 26.624729,9.92872029 C26.5859288,9.89712019 26.5459287,9.8679201 26.5043286,9.84032002 L24.3939221,8.43591572 L28.5275348,3.21749977 C28.5319348,3.21589976 28.5363348,3.21429976 28.5411348,3.21269975 L32.7055475,6.83911084 C33.3875496,8.25591517 31.3751435,16.5587406 23.9691208,23.9667632 M34.9947545,4.59430398 C34.9687545,4.5683039 34.9415544,4.54310382 34.9139543,4.51910375 L30.6151412,0.775492301 C30.0239393,0.213090582 29.1891368,-0.0645102671 28.3143341,0.012689969 C27.5343317,0.0806901769 26.7799294,0.427491237 26.2443278,0.963492876 C26.2011277,1.00709301 26.1603275,1.05269315 26.1223274,1.1006933 L21.8995145,6.43150959 C20.7971111,7.61631322 20.8223112,9.47791891 21.9747147,10.6319224 C22.049915,10.7071227 22.1323152,10.7743229 22.2203155,10.8331231 L24.3795221,12.2703274 C24.2079216,13.0187297 23.0811181,15.1907364 19.1387061,19.1343484 C15.195894,23.0779605 13.0234874,24.2051639 12.2750851,24.3771645 L10.8386807,22.2179579 C10.7798805,22.1295576 10.7126803,22.0471573 10.6374801,21.9723571 C9.48347655,20.8187536 7.62187085,20.7935535 6.43746723,21.8967569 L1.10705093,26.1191698 C1.05825079,26.1579699 1.01225064,26.19917 0.96825051,26.2431702 C-0.248953212,27.4627739 -0.327353451,29.44758 0.783049944,30.6139835 L4.52506138,34.9135967 C4.54906146,34.9415968 4.57426154,34.9687968 4.60026161,34.9947969 C5.33946387,35.7339992 6.44826727,36 7.66267098,36 C9.85587768,36 12.3922854,35.1311973 13.7106895,34.6127958 C16.2590973,33.6099927 21.2743126,31.1875853 26.2315278,26.2295701 C29.905539,22.5547589 32.8823481,18.1071453 34.6131534,13.7063318 C35.4187558,11.6579256 37.0691609,6.66911032 34.9947545,4.59430398" id="phone" transform="translate(18.000095, 18.000000) scale(-1, 1) translate(-18.000095, -18.000000) "></path>
                </g>
            </g>
        </g>
    </g>
</svg>