<?xml version="1.0" encoding="UTF-8" standalone="no"?>
<svg width="50px" height="50px" viewBox="0 0 50 50" version="1.1" xmlns="http://www.w3.org/2000/svg" xmlns:xlink="http://www.w3.org/1999/xlink">
    <!-- Generator: sketchtool 39.1 (31720) - http://www.bohemiancoding.com/sketch -->
    <title>563873B9-7A2D-44FA-B1C4-60F2ECD106A2</title>
    <desc>Created with sketchtool.</desc>
    <defs></defs>
    <g id="2.Home" stroke="none" stroke-width="1" fill="none" fill-rule="evenodd">
        <g id="2.1.0-Building-Info" transform="translate(-185.000000, -1351.000000)" fill="#FFFFFF">
            <g id="btn_Call" transform="translate(0.000000, 1322.000000)">
                <g id="Group" transform="translate(185.000000, 29.000000)">
                    <path d="M23.6786667,49.9662378 C18.8213333,49.7135711 14.012,47.9822378 10.1213333,45.0862378 C9.074,44.3075711 8.31933333,43.6489045 7.33466667,42.6669045 C5.27466667,40.6069045 3.738,38.4482378 2.496,35.8755711 C-0.832,28.9715711 -0.832,21.0315711 2.496,14.1282378 C3.738,11.5549045 5.27466667,9.3962378 7.33466667,7.3362378 C9.39466667,5.2762378 11.5533333,3.73957114 14.1266667,2.49757114 C21.03,-0.830428864 28.97,-0.830428864 35.874,2.49757114 C38.4466667,3.73957114 40.6053333,5.2762378 42.6653333,7.3362378 C44.7253333,9.3962378 46.262,11.5549045 47.504,14.1282378 C50.832,21.0315711 50.832,28.9715711 47.504,35.8755711 C46.262,38.4482378 44.7253333,40.6069045 42.6653333,42.6669045 C41.0093333,44.3229045 39.4,45.5575711 37.4073333,46.7009045 C33.2693333,49.0729045 28.4726667,50.2162378 23.6786667,49.9662378 L23.6786667,49.9662378 Z M27.3713333,43.6229045 C28.7406667,43.4375711 29.8813333,43.1669045 31.134,42.7349045 C37.4906667,40.5395711 42.176,35.1175711 43.4386667,28.4949045 C43.6833333,27.2089045 43.736,26.5995711 43.736,25.0002378 C43.736,23.4042378 43.6833333,22.7949045 43.4386667,21.5055711 C41.9906667,13.9195711 36.0793333,8.0082378 28.4933333,6.5602378 C27.2073333,6.31557114 26.598,6.26357114 24.9986667,6.26357114 C23.4026667,6.26357114 22.7933333,6.31557114 21.504,6.5602378 C13.918,8.0082378 8.00666667,13.9195711 6.55866667,21.5055711 C6.314,22.7922378 6.262,23.4015711 6.262,25.0002378 C6.262,26.5969045 6.314,27.2062378 6.55866667,28.4949045 C8.09533333,36.5495711 14.6966667,42.7035711 22.798,43.6382378 C23.8086667,43.7555711 23.8086667,43.7555711 25.2666667,43.7375711 C26.298,43.7242378 26.8166667,43.6982378 27.3686667,43.6229045 L27.3713333,43.6229045 Z M24.522,38.1229045 C23.2513333,37.8935711 22.246,36.8469045 22.0326667,35.5342378 C21.9646667,35.1149045 21.9646667,35.0262378 22.0326667,34.6069045 C22.2566667,33.2375711 23.2666667,32.2269045 24.6366667,32.0029045 C25.056,31.9349045 25.1446667,31.9349045 25.564,32.0029045 C26.9333333,32.2269045 27.944,33.2375711 28.168,34.6069045 C28.236,35.0262378 28.236,35.1149045 28.168,35.5342378 C27.952,36.8595711 26.9466667,37.8962378 25.6546667,38.1255711 C25.1913333,38.2089045 24.988,38.2089045 24.5246667,38.1229045 L24.522,38.1229045 Z M21.9726667,20.9975711 L21.9726667,13.1802378 L28.228,13.1802378 L28.228,28.8155711 L21.9726667,28.8155711 L21.9726667,20.9975711 Z" id="rp_problem"></path>
                </g>
            </g>
        </g>
    </g>
</svg>