<?xml version="1.0" encoding="UTF-8" standalone="no"?>
<svg width="35px" height="42px" viewBox="0 0 35 42" version="1.1" xmlns="http://www.w3.org/2000/svg" xmlns:xlink="http://www.w3.org/1999/xlink">
    <!-- Generator: sketchtool 39.1 (31720) - http://www.bohemiancoding.com/sketch -->
    <title>33446083-D07F-4A2D-BE3E-0C9D69B436F1</title>
    <desc>Created with sketchtool.</desc>
    <defs></defs>
    <g id="1.Main" stroke="none" stroke-width="1" fill="none" fill-rule="evenodd" opacity="0.6">
        <g id="1.0.1-Login-Screen-v4" transform="translate(-27.000000, -551.000000)" stroke="#4A4A4A" stroke-width="1.33333333" fill="#4A4A4A">
            <g id="Form" transform="translate(27.466667, 406.080000)">
                <g id="Pass" transform="translate(0.000000, 122.880000)">
                    <path d="M28.8810948,38.0525324 L5.09834242,38.0578092 C2.49599648,38.3770564 0.533333333,40.5238398 0.533333333,43.0514331 L0.533333333,57.9830544 C0.533333333,60.77185 2.87671678,63.04 5.75801531,63.04 L28.3131946,63.04 C31.1908585,63.04 33.5333333,60.77185 33.5333333,57.9830544 L33.5333333,43.0514331 C33.5333333,40.5238398 31.5697616,38.3761769 28.8810948,38.0525324 L28.8810948,38.0525324 Z M32.1703728,57.9830544 C32.1703728,60.0445293 30.4385043,61.7207968 28.3131946,61.7207968 L5.75801531,61.7207968 C3.62816234,61.7207968 1.89629385,60.0445293 1.89629385,57.9830544 L1.89629385,43.0514331 C1.89629385,41.1869592 3.34648384,39.6030359 5.18466325,39.3717356 L28.7956826,39.3664588 C30.7192742,39.6021565 32.1703728,41.1869592 32.1703728,43.0514331 L32.1703728,57.9830544 L32.1703728,57.9830544 Z M5.16921637,36.4554171 C5.54357619,36.4756449 5.85796575,36.175746 5.86705215,35.809887 C5.99244452,30.4046717 10.7946087,24.3592032 17.034242,24.3592032 C23.2775098,24.3592032 28.0778567,30.4046717 28.1996145,35.809887 C28.205975,36.1695897 28.5094609,36.4554171 28.8810948,36.4554171 L28.8947244,36.4554171 C29.2709015,36.4475019 29.5689355,36.1449646 29.562575,35.7808645 C29.4253703,29.7547443 24.2488463,23.04 17.034242,23.04 C9.82599813,23.04 4.64402225,29.7547443 4.50409164,35.7808645 C4.49500523,36.1449646 4.79303926,36.4466224 5.16921637,36.4554171 L5.16921637,36.4554171 Z M17.034242,44.758482 C15.0297814,44.758482 13.398772,46.3388875 13.398772,48.2816341 C13.398772,49.5823684 14.1229583,50.7459056 15.2778402,51.3606543 L15.2778402,54.9242619 C15.2778402,55.8608962 16.0656314,56.6233956 17.034242,56.6233956 C18.0037612,56.6233956 18.7933697,55.8608962 18.7933697,54.9242619 L18.7933697,51.3588954 C19.9491602,50.7459056 20.6724379,49.5823684 20.6724379,48.2816341 C20.6724379,46.3388875 19.0414285,44.758482 17.034242,44.758482 L17.034242,44.758482 Z M17.8638306,50.326399 C17.6021422,50.425779 17.4304092,50.6693918 17.4304092,50.9411477 L17.4304092,54.9242619 C17.4304092,55.1335755 17.2532243,55.3041924 17.034242,55.3041924 C16.8125337,55.3041924 16.6408007,55.1370934 16.6408007,54.9242619 L16.6408007,50.9429066 C16.6408007,50.6711508 16.4690677,50.4284174 16.2082879,50.328158 C15.3296327,49.9939598 14.7617325,49.1901253 14.7617325,48.2816341 C14.7617325,47.0662082 15.7812269,46.0776852 17.034242,46.0776852 C18.2899829,46.0776852 19.3094774,47.0662082 19.3094774,48.2816341 C19.3094774,49.1901253 18.7415772,49.9930803 17.8638306,50.326399 L17.8638306,50.326399 Z" id="ic_password"></path>
                </g>
            </g>
        </g>
    </g>
</svg>