<?xml version="1.0" encoding="UTF-8" standalone="no"?>
<svg width="36px" height="36px" viewBox="0 0 36 36" version="1.1" xmlns="http://www.w3.org/2000/svg" xmlns:xlink="http://www.w3.org/1999/xlink">
    <!-- Generator: sketchtool 39.1 (31720) - http://www.bohemiancoding.com/sketch -->
    <title>5DBDDC65-9102-4B87-BA5A-2B5F10BB1204</title>
    <desc>Created with sketchtool.</desc>
    <defs></defs>
    <g id="2.Home" stroke="none" stroke-width="1" fill="none" fill-rule="evenodd">
        <g id="2.0.3-Sidebar-Settings" transform="translate(-148.000000, -210.000000)" fill="#FFFFFF">
            <g id="Building-info-Copy" transform="translate(120.000000, 168.000000)">
                <g id="ic_report2" transform="translate(28.000000, 35.000000)">
                    <path d="M17.04864,42.9756912 C13.55136,42.7937712 10.08864,41.5472112 7.28736,39.4620912 C6.53328,38.9014512 5.98992,38.4272112 5.28096,37.7201712 C3.79776,36.2369712 2.69136,34.6827312 1.79712,32.8304112 C-0.59904,27.8595312 -0.59904,22.1427312 1.79712,17.1723312 C2.69136,15.3195312 3.79776,13.7652912 5.28096,12.2820912 C6.76416,10.7988912 8.3184,9.69249122 10.1712,8.79825122 C15.1416,6.40209122 20.8584,6.40209122 25.82928,8.79825122 C27.6816,9.69249122 29.23584,10.7988912 30.71904,12.2820912 C32.20224,13.7652912 33.30864,15.3195312 34.20288,17.1723312 C36.59904,22.1427312 36.59904,27.8595312 34.20288,32.8304112 C33.30864,34.6827312 32.20224,36.2369712 30.71904,37.7201712 C29.52672,38.9124912 28.368,39.8014512 26.93328,40.6246512 C23.95392,42.3324912 20.50032,43.1556912 17.04864,42.9756912 L17.04864,42.9756912 Z M19.70736,38.4084912 C20.69328,38.2750512 21.51456,38.0801712 22.41648,37.7691312 C26.99328,36.1884912 30.36672,32.2846512 31.27584,27.5163312 C31.452,26.5904112 31.48992,26.1516912 31.48992,25.0001712 C31.48992,23.8510512 31.452,23.4123312 31.27584,22.4840112 C30.23328,17.0220912 25.97712,12.7659312 20.5152,11.7233712 C19.58928,11.5472112 19.15056,11.5097712 17.99904,11.5097712 C16.84992,11.5097712 16.4112,11.5472112 15.48288,11.7233712 C10.02096,12.7659312 5.7648,17.0220912 4.72224,22.4840112 C4.54608,23.4104112 4.50864,23.8491312 4.50864,25.0001712 C4.50864,26.1497712 4.54608,26.5884912 4.72224,27.5163312 C5.82864,33.3156912 10.5816,37.7465712 16.41456,38.4195312 C17.14224,38.5040112 17.14224,38.5040112 18.192,38.4910512 C18.93456,38.4814512 19.308,38.4627312 19.70544,38.4084912 L19.70736,38.4084912 Z M17.65584,34.4484912 C16.74096,34.2833712 16.01712,33.5297712 15.86352,32.5846512 C15.81456,32.2827312 15.81456,32.2188912 15.86352,31.9169712 C16.0248,30.9310512 16.752,30.2033712 17.7384,30.0420912 C18.04032,29.9931312 18.10416,29.9931312 18.40608,30.0420912 C19.392,30.2033712 20.11968,30.9310512 20.28096,31.9169712 C20.32992,32.2188912 20.32992,32.2827312 20.28096,32.5846512 C20.12544,33.5388912 19.4016,34.2852912 18.47136,34.4504112 C18.13776,34.5104112 17.99136,34.5104112 17.65776,34.4484912 L17.65584,34.4484912 Z M15.82032,22.1182512 L15.82032,16.4897712 L20.32416,16.4897712 L20.32416,27.7472112 L15.82032,27.7472112 L15.82032,22.1182512 Z" id="rp_problem"></path>
                </g>
            </g>
        </g>
    </g>
</svg>