<?xml version="1.0" encoding="UTF-8" standalone="no"?>
<svg width="120px" height="120px" viewBox="0 0 120 120" version="1.1" xmlns="http://www.w3.org/2000/svg" xmlns:xlink="http://www.w3.org/1999/xlink">
    <!-- Generator: sketchtool 39.1 (31720) - http://www.bohemiancoding.com/sketch -->
    <title>A9F408F7-0CDF-4C11-A776-977B72960154</title>
    <desc>Created with sketchtool.</desc>
    <defs></defs>
    <g id="1.Main" stroke="none" stroke-width="1" fill="none" fill-rule="evenodd">
        <g id="1.0.4-Submit-Recovery-v4" transform="translate(-300.000000, -238.000000)">
            <g id="Form" transform="translate(28.000000, 237.666667)">
                <g id="ic_Submitted" transform="translate(272.000000, 0.333333)">
                    <path d="M60,120 C26.912,120 0,93.088 0,60 C0,26.912 26.912,0 60,0 C93.088,0 120,26.912 120,60 C120,93.088 93.088,120 60,120 L60,120 Z M60,6.875 C30.709,6.875 6.875,30.709 6.875,60 C6.875,89.291 30.709,113.125 60,113.125 C89.291,113.125 113.125,89.291 113.125,60 C113.125,30.709 89.291,6.875 60,6.875 L60,6.875 Z" id="Page-1" fill="#0C78BE"></path>
                    <path d="M55,85 C53.6816,85 52.4064,84.4816 51.4624,83.5376 L31.4624,63.5376 C29.5056,61.5808 29.5056,58.4256 31.4624,56.4688 C33.4192,54.512 36.5744,54.512 38.5312,56.4688 L54.456,72.3936 L80.9936,37.0064 C82.6496,34.8064 85.7808,34.3504 87.9872,36.0064 C90.2,37.6624 90.6496,40.7936 88.9872,43.0064 L58.9872,83.0064 C58.1184,84.168 56.7872,84.8944 55.344,84.9936 L54.9936,85.0064 L55,85 Z" id="Path" fill="#22B1D7"></path>
                </g>
            </g>
        </g>
    </g>
</svg>