<?xml version="1.0" encoding="UTF-8" standalone="no"?>
<svg width="72px" height="72px" viewBox="0 0 72 72" version="1.1" xmlns="http://www.w3.org/2000/svg" xmlns:xlink="http://www.w3.org/1999/xlink">
    <!-- Generator: sketchtool 39.1 (31720) - http://www.bohemiancoding.com/sketch -->
    <title>7041AFC9-A9F7-4F4A-9404-C32FD779CFE5</title>
    <desc>Created with sketchtool.</desc>
    <defs></defs>
    <g id="2.Home" stroke="none" stroke-width="1" fill="none" fill-rule="evenodd">
        <g id="2.1.0-Building-Info" transform="translate(-620.000000, -976.000000)">
            <g id="All-Copy-2" transform="translate(0.000000, 952.000000)">
                <g id="ic_sendmail" transform="translate(620.000000, 24.000000)">
                    <rect id="Rectangle-2" fill="#ECEFF1" x="0" y="0" width="72" height="72" rx="8"></rect>
                    <path d="M53.1354667,34.7879506 C53.104,34.7695144 18.9562667,20.0574156 18.9562667,20.0574156 C18.8666667,20.0184362 18.7749333,20 18.6810667,20 C18.5498667,20 18.4208,20.0347654 18.3082667,20.10693 C18.1146667,20.230716 18,20.4424691 18,20.6668642 L18,34.0083621 C18,34.3681317 18.2874667,34.6604774 18.6544,34.6746996 L52.4501333,36 L18.6544,37.3231934 C18.2874667,37.3374156 18,37.6318683 18,37.9895309 L18,51.3310288 C18,51.5533169 18.1146667,51.7677037 18.3082667,51.890963 C18.4208,51.9631276 18.5498667,52 18.6810667,52 C18.7728,52 18.8666667,51.9815638 18.9541333,51.9425844 L52.7626667,37.382716 C53.4186667,37.1356708 54,36.6916214 54,35.989465 C54,35.4116214 53.6394667,35.0513251 53.1354667,34.7879506 Z" id="Page-1" fill="#22B1D7"></path>
                </g>
            </g>
        </g>
    </g>
</svg>