<?xml version="1.0" encoding="UTF-8" standalone="no"?>
<svg width="50px" height="50px" viewBox="0 0 50 50" version="1.1" xmlns="http://www.w3.org/2000/svg" xmlns:xlink="http://www.w3.org/1999/xlink">
    <!-- Generator: sketchtool 39.1 (31720) - http://www.bohemiancoding.com/sketch -->
    <title>153CEB9D-C832-449D-BFB6-0C914D2F416F</title>
    <desc>Created with sketchtool.</desc>
    <defs></defs>
    <g id="2.Home" stroke="none" stroke-width="1" fill="none" fill-rule="evenodd">
        <g id="2.0.3.2-Settings" transform="translate(-218.000000, -1109.000000)" fill="#FFFFFF">
            <g id="btn_Call" transform="translate(0.000000, 1080.000000)">
                <g id="Group" transform="translate(218.000000, 29.000000)">
                    <g id="ic_save">
                        <path d="M25,0.148507463 C20.0179104,0.148507463 15.4298507,1.60298507 11.5119403,4.12164179 C8.54402985,6.02537313 5.97014925,8.59925373 4.01119403,11.6223881 C1.54776119,15.4850746 0.0380597015,20.0731343 0.0380597015,25.0552239 C0.0380597015,38.8231343 11.1768657,49.9619403 25,49.9619403 C29.9820896,49.9619403 34.6253731,48.5074627 38.4880597,45.988806 C41.511194,44.0298507 44.0298507,41.511194 45.988806,38.4880597 C48.5074627,34.5701493 49.9619403,29.9820896 49.9619403,25 C49.9619403,11.2873134 38.7679104,0.148507463 25,0.148507463 L25,0.148507463 Z M33.3955224,40.9514925 C30.8768657,42.2955224 28.0231343,43.0208955 25,43.0208955 C15.0947761,43.0208955 7.03432836,34.961194 7.03432836,25.1104478 C7.03432836,22.0880597 7.76268657,19.2335821 9.10373134,16.7149254 C10.7828358,13.5261194 13.4126866,10.8940299 16.6044776,9.21492537 C19.1231343,7.87089552 21.9768657,7.14477612 25,7.14477612 C34.9052239,7.14477612 42.9656716,15.15 42.9656716,25.1104478 C42.9656716,28.1335821 42.2373134,30.9873134 40.8962687,33.5059701 C39.1619403,36.6432836 36.5843284,39.2723881 33.3955224,40.9514925 L33.3955224,40.9514925 Z" id="Fill-1"></path>
                        <polygon id="Fill-2" points="34.9641791 20.3529851 31.7716418 17.1641791 22.3708955 26.5686567 18.2283582 22.4261194 15.0358209 25.6149254 19.1783582 29.7574627 22.3708955 32.9462687 25.5597015 29.7574627"></polygon>
                    </g>
                </g>
            </g>
        </g>
    </g>
</svg>