<?xml version="1.0" encoding="UTF-8" standalone="no"?>
<svg width="38px" height="38px" viewBox="0 0 38 38" version="1.1" xmlns="http://www.w3.org/2000/svg" xmlns:xlink="http://www.w3.org/1999/xlink">
    <!-- Generator: sketchtool 39.1 (31720) - http://www.bohemiancoding.com/sketch -->
    <title>EFB7D58A-0328-4975-9474-B5DB4B6ADD2F</title>
    <desc>Created with sketchtool.</desc>
    <defs></defs>
    <g id="2.Home" stroke="none" stroke-width="1" fill="none" fill-rule="evenodd">
        <g id="2.0.3-Sidebar-Settings" transform="translate(-147.000000, -329.000000)" fill="#FFFFFF">
            <g id="Building-info-Copy-2" transform="translate(120.000000, 288.000000)">
                <g id="ic_settings" transform="translate(28.000000, 35.000000)">
                    <g id="Group" transform="translate(0.000000, 7.000000)">
                        <path d="M33.6857143,14.3265306 C33.0612245,14.2530612 32.3632653,14.2163265 31.5918367,14.1428571 C31.444898,14.1428571 31.3714286,14.0326531 31.2979592,13.922449 C31.0408163,13.077551 30.7102041,12.2693878 30.2693878,11.4612245 C30.1959184,11.3510204 30.2326531,11.2040816 30.3061224,11.0938776 C30.8204082,10.5061224 31.2612245,9.99183673 31.6653061,9.51428571 C32.3632653,8.66938776 32.3265306,7.42040816 31.5183673,6.6122449 L29.3877551,4.44489796 C28.5795918,3.63673469 27.3673469,3.6 26.4857143,4.29795918 C26.0081633,4.70204082 25.4571429,5.14285714 24.9061224,5.65714286 C24.7959184,5.73061224 24.6857143,5.76734694 24.5387755,5.69387755 C23.7673469,5.28979592 22.922449,4.92244898 22.077551,4.66530612 C21.9673469,4.62857143 21.8571429,4.51836735 21.8571429,4.37142857 C21.8204082,3.6 21.7469388,2.90204082 21.6734694,2.27755102 C21.5632653,1.1755102 20.644898,0.330612245 19.5428571,0.330612245 L16.4571429,0.330612245 C15.355102,0.330612245 14.4,1.1755102 14.3265306,2.27755102 C14.2530612,2.90204082 14.2163265,3.6 14.1428571,4.37142857 C14.1428571,4.51836735 14.0326531,4.59183673 13.922449,4.66530612 C13.077551,4.92244898 12.2693878,5.25306122 11.4612245,5.69387755 C11.3510204,5.76734694 11.2040816,5.73061224 11.0938776,5.65714286 C10.5428571,5.14285714 9.99183673,4.70204082 9.51428571,4.29795918 C8.66938776,3.6 7.42040816,3.63673469 6.6122449,4.44489796 L4.44489796,6.6122449 C3.63673469,7.42040816 3.6,8.63265306 4.29795918,9.51428571 C4.70204082,9.99183673 5.14285714,10.5428571 5.65714286,11.0938776 C5.73061224,11.2040816 5.76734694,11.3142857 5.69387755,11.4612245 C5.28979592,12.2326531 4.92244898,13.077551 4.66530612,13.922449 C4.62857143,14.0326531 4.51836735,14.1428571 4.37142857,14.1428571 C3.6,14.1795918 2.90204082,14.2530612 2.27755102,14.3265306 C1.1755102,14.4367347 0.330612245,15.355102 0.330612245,16.4571429 L0.330612245,19.5428571 C0.330612245,20.644898 1.1755102,21.6 2.27755102,21.6734694 C2.90204082,21.7469388 3.6,21.7836735 4.37142857,21.8571429 C4.51836735,21.8571429 4.59183673,21.9673469 4.66530612,22.077551 C4.92244898,22.922449 5.25306122,23.7306122 5.69387755,24.5387755 C5.76734694,24.6489796 5.73061224,24.7959184 5.65714286,24.9061224 C5.14285714,25.4938776 4.70204082,26.0081633 4.29795918,26.4857143 C3.6,27.3306122 3.63673469,28.5795918 4.44489796,29.3877551 L6.6122449,31.555102 C7.42040816,32.3632653 8.63265306,32.4 9.51428571,31.7020408 C9.99183673,31.2979592 10.5428571,30.8571429 11.0938776,30.3428571 C11.2040816,30.2693878 11.3142857,30.2326531 11.4612245,30.3061224 C12.2326531,30.7102041 13.077551,31.077551 13.922449,31.3346939 C14.0326531,31.3714286 14.1428571,31.4816327 14.1428571,31.6285714 C14.1795918,32.4 14.2530612,33.0979592 14.3265306,33.722449 C14.4367347,34.8244898 15.355102,35.6693878 16.4571429,35.6693878 L19.5428571,35.6693878 C20.644898,35.6693878 21.6,34.8244898 21.6734694,33.722449 C21.7469388,33.0979592 21.7836735,32.4 21.8571429,31.6285714 C21.8571429,31.4816327 21.9673469,31.4081633 22.077551,31.3346939 C22.922449,31.077551 23.7306122,30.7469388 24.5387755,30.3061224 C24.6489796,30.2326531 24.7959184,30.2693878 24.9061224,30.3428571 C25.4571429,30.8571429 26.0081633,31.2979592 26.4857143,31.7020408 C27.3306122,32.4 28.5795918,32.3632653 29.3877551,31.555102 L31.555102,29.3877551 C32.3632653,28.5795918 32.4,27.3673469 31.7020408,26.4857143 C31.2979592,26.0081633 30.8571429,25.4571429 30.3428571,24.9061224 C30.2693878,24.7959184 30.2326531,24.6857143 30.3061224,24.5387755 C30.7102041,23.7673469 31.077551,22.922449 31.3346939,22.077551 C31.3714286,21.9673469 31.4816327,21.8571429 31.6285714,21.8571429 C32.4,21.8204082 33.0979592,21.7469388 33.722449,21.6734694 C34.8244898,21.5632653 35.6693878,20.644898 35.6693878,19.5428571 L35.6693878,16.4571429 C35.6326531,15.355102 34.7877551,14.4 33.6857143,14.3265306 L33.6857143,14.3265306 Z M33.7591837,19.5428571 C33.7591837,19.6897959 33.6489796,19.8367347 33.5020408,19.8367347 C32.877551,19.9102041 32.2163265,19.9469388 31.4816327,19.9836735 C30.6,20.0571429 29.8285714,20.644898 29.5714286,21.5265306 C29.3510204,22.2612245 29.0571429,22.9591837 28.6897959,23.6571429 C28.2857143,24.4285714 28.3959184,25.4204082 28.9836735,26.0816327 C29.4612245,26.6326531 29.9020408,27.1469388 30.3061224,27.6244898 C30.4163265,27.7346939 30.3795918,27.9183673 30.2693878,28.0285714 L28.1020408,30.1959184 C27.9918367,30.3061224 27.8081633,30.3061224 27.6979592,30.2326531 C27.2204082,29.8285714 26.7061224,29.3877551 26.155102,28.9102041 C25.4938776,28.322449 24.5020408,28.2122449 23.7306122,28.6163265 C23.0693878,28.9836735 22.3346939,29.277551 21.6,29.4979592 C20.755102,29.755102 20.1306122,30.5265306 20.0571429,31.4081633 C20.0204082,32.1428571 19.9469388,32.8408163 19.9102041,33.4285714 C19.9102041,33.5755102 19.7632653,33.6857143 19.6163265,33.6857143 L16.5306122,33.6857143 C16.3836735,33.6857143 16.2367347,33.5755102 16.2367347,33.4285714 C16.1632653,32.8040816 16.1265306,32.1428571 16.0897959,31.4081633 C16.0163265,30.5265306 15.4285714,29.755102 14.5469388,29.4979592 C13.8122449,29.277551 13.1142857,28.9836735 12.4163265,28.6163265 C12.0857143,28.4326531 11.755102,28.3591837 11.3877551,28.3591837 C10.8734694,28.3591837 10.3591837,28.5428571 9.95510204,28.8734694 C9.40408163,29.3510204 8.88979592,29.7918367 8.4122449,30.1959184 C8.30204082,30.3061224 8.11836735,30.2693878 8.00816327,30.1591837 L5.84081633,27.9918367 C5.73061224,27.8816327 5.73061224,27.6979592 5.80408163,27.5877551 C6.20816327,27.1102041 6.64897959,26.5959184 7.12653061,26.044898 C7.71428571,25.3836735 7.8244898,24.3918367 7.42040816,23.6204082 C7.05306122,22.9591837 6.75918367,22.2244898 6.53877551,21.4897959 C6.28163265,20.644898 5.51020408,20.0204082 4.62857143,19.9469388 C3.89387755,19.9102041 3.19591837,19.8367347 2.60816327,19.8 C2.46122449,19.8 2.35102041,19.6530612 2.35102041,19.5061224 L2.35102041,16.4204082 C2.35102041,16.2734694 2.46122449,16.1265306 2.60816327,16.1265306 C3.23265306,16.0530612 3.89387755,16.0163265 4.62857143,15.9795918 C5.51020408,15.9061224 6.28163265,15.3183673 6.53877551,14.4367347 C6.75918367,13.7020408 7.05306122,13.0040816 7.42040816,12.3061224 C7.8244898,11.5346939 7.71428571,10.5428571 7.12653061,9.88163265 C6.64897959,9.33061224 6.17142857,8.77959184 5.80408163,8.33877551 C5.69387755,8.22857143 5.73061224,8.04489796 5.84081633,7.93469388 L8.00816327,5.76734694 C8.11836735,5.65714286 8.30204082,5.65714286 8.4122449,5.73061224 C8.88979592,6.13469388 9.40408163,6.5755102 9.95510204,7.05306122 C10.6163265,7.64081633 11.6081633,7.75102041 12.3795918,7.34693878 C13.0408163,6.97959184 13.7755102,6.68571429 14.5102041,6.46530612 C15.355102,6.20816327 15.9795918,5.43673469 16.0530612,4.55510204 C16.0897959,3.82040816 16.1632653,3.12244898 16.2,2.53469388 C16.2,2.3877551 16.3469388,2.27755102 16.4938776,2.27755102 L19.5795918,2.27755102 C19.7265306,2.27755102 19.8734694,2.3877551 19.8734694,2.53469388 C19.9469388,3.15918367 19.9836735,3.82040816 20.0204082,4.55510204 C20.0938776,5.43673469 20.6816327,6.20816327 21.5632653,6.46530612 C22.2979592,6.68571429 22.9959184,6.97959184 23.6938776,7.34693878 C24.4653061,7.75102041 25.4571429,7.64081633 26.1183673,7.05306122 C26.6693878,6.5755102 27.1836735,6.13469388 27.6612245,5.73061224 C27.7714286,5.62040816 27.955102,5.65714286 28.0653061,5.76734694 L30.2326531,7.93469388 C30.3428571,8.04489796 30.3428571,8.22857143 30.2693878,8.33877551 C29.8653061,8.81632653 29.4244898,9.33061224 28.9469388,9.88163265 C28.3591837,10.5428571 28.2489796,11.5346939 28.6530612,12.3061224 C29.0204082,12.9673469 29.3142857,13.7020408 29.5346939,14.4367347 C29.7918367,15.2816327 30.5632653,15.9061224 31.444898,15.9795918 C32.1795918,16.0163265 32.877551,16.0897959 33.4653061,16.1265306 C33.6122449,16.1265306 33.722449,16.2734694 33.722449,16.4204082 L33.722449,19.5428571 L33.7591837,19.5428571 Z" id="Shape" stroke="#FFFFFF"></path>
                        <path d="M18,12.5265306 C14.9877551,12.5265306 12.5265306,14.9877551 12.5265306,18 C12.5265306,21.0122449 14.9877551,23.4734694 18,23.4734694 C21.0122449,23.4734694 23.4734694,21.0122449 23.4734694,18 C23.4734694,14.9877551 21.0122449,12.5265306 18,12.5265306 L18,12.5265306 Z M18,21.6367347 C16.0163265,21.6367347 14.3632653,20.0204082 14.3632653,18 C14.3632653,15.9795918 15.9795918,14.3632653 18,14.3632653 C20.0204082,14.3632653 21.6367347,15.9795918 21.6367347,18 C21.6367347,20.0204082 19.9836735,21.6367347 18,21.6367347 L18,21.6367347 Z" id="Shape"></path>
                    </g>
                </g>
            </g>
        </g>
    </g>
</svg>