<?xml version="1.0" encoding="UTF-8" standalone="no"?>
<svg width="52px" height="40px" viewBox="0 0 52 40" version="1.1" xmlns="http://www.w3.org/2000/svg" xmlns:xlink="http://www.w3.org/1999/xlink">
    <!-- Generator: sketchtool 39.1 (31720) - http://www.bohemiancoding.com/sketch -->
    <title>E8F7EE8C-4E23-4B3F-A441-CF43E4BED182</title>
    <desc>Created with sketchtool.</desc>
    <defs></defs>
    <g id="2.Home" stroke="none" stroke-width="1" fill="none" fill-rule="evenodd">
        <g id="2.0.3.3-Report-Problems-extra" transform="translate(-216.000000, -645.000000)" fill="#0C78BE">
            <g id="Name" transform="translate(0.000000, -789.000000)">
                <g id="Where" transform="translate(28.000000, 1316.000000)">
                    <g id="Group-4-Copy-4" transform="translate(0.000000, 88.000000)">
                        <g id="Group-3" transform="translate(188.000000, 30.000000)">
                            <g id="ic_takephoto">
                                <path d="M32.8661972,23.4094545 C32.8661972,27.1730909 29.7908732,30.2269091 26,30.2269091 C22.2091268,30.2269091 19.1338028,27.1730909 19.1338028,23.4094545 C19.1338028,19.6450909 22.2091268,16.5905455 26,16.5905455 C29.7908732,16.5905455 32.8661972,19.6450909 32.8661972,23.4094545" id="Fill-1"></path>
                                <path d="M50.0313239,6.93163636 L38.1299155,6.93163636 C37.9014085,6.93163636 37.6729014,6.81818182 37.5579155,6.59054545 L34.8114366,1.02254545 C34.5829296,0.454545455 33.8959437,0.113454545 33.3239437,0.113454545 L18.9045634,0.113454545 C18.2183099,0.113454545 17.6463099,0.454545455 17.4170704,1.02254545 L14.4420845,6.59054545 C14.3270986,6.81818182 14.0985915,6.93163636 13.984338,6.93163636 L1.96867606,6.93163636 C1.0531831,6.93163636 0.251943662,7.72727273 0.251943662,8.63636364 L0.251943662,8.63636364 L0.251943662,38.1818182 C0.251943662,39.0909091 1.0531831,39.8865455 1.96867606,39.8865455 L50.0313239,39.8865455 C50.9468169,39.8865455 51.7480563,39.0909091 51.7480563,38.1818182 L51.7480563,8.63636364 C51.7480563,7.72727273 50.9468169,6.93163636 50.0313239,6.93163636 L50.0313239,6.93163636 Z M19.2480563,5.22763636 L19.9350423,3.74981818 C20.2785352,3.29527273 20.7355493,2.95418182 21.1940282,2.95418182 L30.8059718,2.95418182 C31.2644507,2.95418182 31.7214648,3.29527273 31.9507042,3.74981818 L32.6369577,5.22763636 C33.0954366,5.90909091 32.7519437,6.93163636 32.0649577,7.27272727 C31.9507042,7.38618182 31.7214648,7.49963636 31.6072113,7.49963636 L20.5070423,7.49963636 C19.7058028,7.38618182 19.0195493,6.59054545 19.1338028,5.79563636 C19.1338028,5.568 19.2480563,5.34109091 19.2480563,5.22763636 L19.2480563,5.22763636 Z M26,34.7723636 C19.7058028,34.7723636 14.556338,29.6589091 14.556338,23.4094545 C14.556338,17.1592727 19.7058028,12.0450909 26,12.0450909 C32.2941972,12.0450909 37.443662,17.1592727 37.443662,23.4094545 C37.443662,29.6589091 32.2941972,34.7723636 26,34.7723636 L26,34.7723636 Z" id="Fill-2"></path>
                            </g>
                        </g>
                    </g>
                </g>
            </g>
        </g>
    </g>
</svg>