<?xml version="1.0" encoding="UTF-8" standalone="no"?>
<svg width="38px" height="22px" viewBox="0 0 38 22" version="1.1" xmlns="http://www.w3.org/2000/svg" xmlns:xlink="http://www.w3.org/1999/xlink">
    <!-- Generator: sketchtool 39.1 (31720) - http://www.bohemiancoding.com/sketch -->
    <title>5EA79E28-009A-4D43-AB69-A59AA3D7F4D3</title>
    <desc>Created with sketchtool.</desc>
    <defs></defs>
    <g id="1.Main" stroke="none" stroke-width="1" fill="none" fill-rule="evenodd" opacity="0.7">
        <g id="1.0.2-Register-Screen-v4" transform="translate(-652.000000, -697.000000)" fill="#4A4A4A">
            <g id="Form" transform="translate(27.466667, 405.080000)">
                <g id="Pass" transform="translate(0.533333, 246.920000)">
                    <g id="ic_view" transform="translate(624.000000, 45.000000)">
                        <path d="M19,4.66666667 C15.5079743,4.66666667 12.6666667,7.50797433 12.6666667,11 C12.6666667,14.4920257 15.5079743,17.3333333 19,17.3333333 C22.4920257,17.3333333 25.3333333,14.4920257 25.3333333,11 C25.3333333,7.50797433 22.4920257,4.66666667 19,4.66666667 L19,4.66666667 Z M19,15.355223 C16.5975346,15.355223 14.644777,13.4006545 14.644777,11 C14.644777,8.59753463 16.5993455,6.64477697 19,6.64477697 C21.4024654,6.64477697 23.355223,8.59934553 23.355223,11 C23.355223,13.4024654 21.4024654,15.355223 19,15.355223 L19,15.355223 Z" id="Fill-1"></path>
                        <path d="M37.1489615,8.92555987 C34.482048,6.24280165 27.372114,-2.27373675e-13 19,-2.27373675e-13 C10.627886,-2.27373675e-13 3.51795202,6.24280165 0.85103848,8.92555987 C0.3034616,9.4779479 0,10.2144653 0,11 C0,11.7855347 0.301626147,12.5220521 0.85103848,13.0744401 C3.51795202,15.7571984 10.627886,22 19,22 C27.372114,22 34.482048,15.7571984 37.1489615,13.0744401 C37.6965384,12.5220521 38,11.7855347 38,11 C38,10.2144653 37.6965384,9.4779479 37.1489615,8.92555987 L37.1489615,8.92555987 Z M35.7460634,11.6039191 C33.253518,14.1100891 26.63365,19.9425274 19,19.9425274 C11.36635,19.9425274 4.74648205,14.1126028 2.25393656,11.6039191 C2.09364032,11.4417847 2.00553856,11.2281193 2.00553856,11 C2.00553856,10.7718807 2.09364032,10.5582153 2.25393656,10.3960809 C4.74648205,7.88991088 11.36635,2.05747258 19,2.05747258 C26.63365,2.05747258 33.253518,7.88739717 35.7460634,10.3960809 C35.9063597,10.5582153 35.9944614,10.7718807 35.9944614,11 C35.9944614,11.2281193 35.9063597,11.4417847 35.7460634,11.6039191 L35.7460634,11.6039191 Z" id="Fill-2"></path>
                    </g>
                </g>
            </g>
        </g>
    </g>
</svg>