<?xml version="1.0" encoding="UTF-8" standalone="no"?>
<svg width="94px" height="89px" viewBox="0 0 94 89" version="1.1" xmlns="http://www.w3.org/2000/svg" xmlns:xlink="http://www.w3.org/1999/xlink">
    <!-- Generator: sketchtool 39.1 (31720) - http://www.bohemiancoding.com/sketch -->
    <title>7E3FFCF7-4314-4ACC-8850-C822D378A033</title>
    <desc>Created with sketchtool.</desc>
    <defs></defs>
    <g id="2.Home" stroke="none" stroke-width="1" fill="none" fill-rule="evenodd">
        <g id="2.0.1-Homescreen-v6" transform="translate(-312.000000, -864.000000)">
            <g id="Features" transform="translate(28.000000, 835.000000)">
                <g id="Work" transform="translate(227.000000, 0.000000)">
                    <g id="ic_work" transform="translate(57.000000, 29.000000)">
                        <g id="Group-3" transform="translate(0.000000, 19.000000)" fill="#22B1D7">
                            <path d="M87.533324,59.9251979 C87.5271411,59.9422562 87.5199104,59.9616168 87.5120508,59.982024 C87.4902537,60.0282803 87.468247,60.0745365 87.4461356,60.1206881 C87.2271166,60.5771809 86.9630363,61.0109641 86.6757967,61.4274797 C86.6592392,61.451445 86.6453017,61.4719568 86.632412,61.4908989 C86.4584544,61.7021916 86.2716071,61.9024958 86.0807777,62.098614 C85.9211768,62.2623946 85.7525637,62.4172798 85.5819594,62.5695487 C85.5187688,62.6258515 85.454111,62.6803753 85.3890341,62.7344805 C84.9898747,63.0224832 84.5646216,63.2728112 84.1272125,63.4974994 C84.0532281,63.5354881 83.9084031,63.6001632 83.7896718,63.6523846 C83.6195915,63.7141294 83.4477298,63.7710601 83.2751344,63.8248513 C82.9079371,63.9392362 82.5326707,64.0252602 82.1540508,64.0920283 C81.2924366,64.1680058 80.4195046,64.139645 79.556004,64.139645 L74.4333708,64.139645 L57.2322091,64.139645 L36.5638412,64.139645 L19.3974711,64.139645 L14.3405436,64.139645 C13.4812348,64.139645 12.6125993,64.1674825 11.7549672,64.0929702 C11.4188936,64.0325859 11.0865926,63.9571317 10.7565971,63.8648285 C10.5310809,63.8016186 10.3094421,63.7255364 10.0891657,63.6462101 C10.0720843,63.6400356 10.0528022,63.6328146 10.0323674,63.6250704 C9.98604861,63.6031981 9.93962497,63.5812211 9.89341093,63.5591395 C9.43630056,63.3404165 9.00193043,63.076693 8.58485128,62.7898415 C8.56085351,62.7733064 8.54031394,62.7593877 8.52134627,62.7466201 C8.30976767,62.5728975 8.10908763,62.3861981 7.91280892,62.1956265 C7.7487019,62.0362413 7.59371193,61.8678559 7.44123701,61.6974822 C7.38454359,61.6341677 7.32984125,61.5692833 7.27545329,61.504085 C6.98737525,61.1056743 6.73691817,60.6813098 6.51192598,60.2447009 C6.47378105,60.1707119 6.40891371,60.0255593 6.35651683,59.9069884 C6.29479331,59.7373473 6.23799509,59.565927 6.1841311,59.3937742 C6.07032508,59.0294801 5.98470858,58.6572323 5.91795496,58.2817404 C5.81368517,57.1582994 5.86891148,56.0051373 5.86891148,54.8823243 L5.86891148,47.7690123 L5.86891148,27.6885651 L5.86891148,13.4723017 C5.86891148,12.9187964 5.87058818,12.3709423 5.91753579,11.8205766 C5.9776874,11.4885153 6.05251014,11.1600122 6.14409989,10.833916 C6.20729052,10.6087046 6.28358038,10.3873653 6.36290925,10.1673864 C6.36909208,10.1503281 6.37632285,10.1308628 6.38418239,10.1104557 C6.40608428,10.0641994 6.42798618,10.0179432 6.45009766,9.97189621 C6.66911661,9.51540348 6.93319688,9.08162028 7.22043657,8.66510468 C7.23678439,8.64134864 7.25061717,8.62104612 7.26340201,8.60220873 C7.43735964,8.39070672 7.62452129,8.19008853 7.81556031,7.99397038 C7.97505641,7.83008509 8.14366957,7.67530455 8.3142738,7.52303566 C8.37756923,7.46652349 8.44243657,7.41179041 8.50772308,7.35758059 C8.90667291,7.0698918 9.33182118,6.81966849 9.76902074,6.5949803 C9.84310992,6.55688691 9.98845886,6.49200257 10.1073998,6.43978115 C10.2771657,6.37814102 10.4488178,6.3213149 10.6212036,6.26762834 C10.9885057,6.15313888 11.3639817,6.0671148 11.7427064,6.00024207 C12.6042158,5.92447391 13.4769382,5.95283464 14.3402292,5.95283464 L19.4627576,5.95283464 L36.6640241,5.95283464 L57.332392,5.95283464 L74.4987621,5.95283464 L79.5557944,5.95283464 C80.4151032,5.95283464 81.2836339,5.92499717 82.141266,5.99940486 C82.4773396,6.05978915 82.8097454,6.13524336 83.1397409,6.22754656 C83.3652571,6.29075647 83.5868959,6.36694324 83.8070676,6.44616493 C83.8242537,6.4523394 83.8437454,6.45966506 83.8642849,6.46751397 C83.910499,6.48928162 83.956713,6.51115392 84.0028223,6.53323552 C84.4599327,6.75195854 84.8943028,7.01568198 85.3113819,7.30253355 C85.3350653,7.31885929 85.3555001,7.33267338 85.3742582,7.34544094 C85.5861512,7.51916353 85.7868312,7.70607228 85.9834243,7.89685317 C86.1475313,8.05613376 86.3025213,8.22451909 86.4549962,8.3948928 C86.5115848,8.45810271 86.5662872,8.52288239 86.6205703,8.58808069 C86.9087532,8.98638681 87.1592103,9.41096063 87.3842025,9.84767409 C87.4223474,9.92166317 87.4872147,10.0668157 87.5396116,10.1854913 C87.6012303,10.3551324 87.6581333,10.526448 87.7119973,10.6987055 C87.8255938,11.062581 87.9112103,11.4345148 87.9779639,11.8096928 C88.0824433,12.9335523 88.0272169,14.0868191 88.0272169,15.2100508 L88.0272169,22.3233628 L88.0272169,42.40381 L88.0272169,56.6200734 C88.0274265,56.8593082 88.0274265,57.0982291 88.0274265,57.3372546 C88.0251211,57.644932 88.0095068,57.9509349 87.9817365,58.2564145 C87.9211657,58.5938131 87.8451902,58.9274442 87.7522381,59.2587729 C87.6889427,59.4839844 87.6127576,59.7053237 87.533324,59.9251979 M93.8958769,57.3313941 L93.8958769,46.9691558 L93.8958769,26.8000682 L93.8958769,13.2333808 C93.8958769,12.3217558 93.8124611,11.4330497 93.68346,10.5254015 C93.3055737,7.86577148 91.7996874,5.27531656 89.8340709,3.47059006 C87.3332727,1.17462631 84.142722,0.092627627 80.778004,0.092627627 L70.4482738,0.092627627 L51.5989159,0.092627627 L31.1989249,0.092627627 L16.2173998,0.092627627 L12.936412,0.092627627 C9.17431616,0.092627627 5.44250569,1.62578177 3.02596165,4.56577491 C1.10666399,6.90077391 0.0235157191,9.71895193 0.000880267559,12.755539 C-0.00111081382,13.0142392 0.000880267559,13.2730439 0.000880267559,13.5317441 L0.000880267559,18.9720866 L0.000880267559,38.2286074 L0.000880267559,54.9837322 C0.000880267559,56.5382354 -0.00687447046,58.0184355 0.213297213,59.5674968 C0.591288294,62.2271268 2.09706979,64.8175817 4.06279108,66.6223082 C6.2882961,68.665537 9.0914243,69.7820709 12.0926127,69.9827938 C12.897324,70.0366896 13.7159728,70.0002707 14.5214176,70.0002707 L19.7951634,70.0002707 L37.1679773,70.0002707 L57.8337253,70.0002707 L74.8233084,70.0002707 L79.7616094,70.0002707 C81.2026283,70.0002707 82.5745882,69.9780844 84.0124633,69.6870468 C89.7574667,68.5240473 93.8532259,63.0830768 93.8959817,57.3373593 C93.8959817,57.3353709 93.8958769,57.3333825 93.8958769,57.3313941" id="Fill-1"></path>
                        </g>
                        <path d="M32.8086833,12.9936107 C32.8118987,12.5435704 32.8404226,12.0971812 32.8950848,11.6506845 C32.860545,11.9171006 32.8259014,12.1835167 32.7913615,12.4499328 C32.8576407,11.966604 32.9536885,11.4920805 33.0810606,11.0219597 C33.1436058,10.7908724 33.2191163,10.5637584 33.2976348,10.3380402 C33.3693076,10.1322953 33.5865042,9.61524829 33.2109222,10.5254228 C33.264962,10.3944161 33.3244992,10.2658792 33.3839326,10.1374496 C33.6007142,9.66904695 33.8620969,9.22394628 34.1464024,8.79656373 C34.5702157,8.15924829 33.7141875,9.33068453 34.1878917,8.73331541 C34.3603835,8.51575836 34.5460482,8.30958386 34.7354469,8.10791943 C34.8933137,7.93975836 35.0602044,7.78093957 35.2290659,7.62469796 C35.3305073,7.53084561 35.435579,7.44150333 35.5406507,7.35216105 C35.9577219,6.99769125 34.9497392,7.81004024 35.3855844,7.48016105 C35.7903126,7.17390601 36.2235647,6.90974494 36.6688487,6.67242951 C36.8814814,6.55914092 37.6867889,6.21530199 36.7273486,6.62281877 C36.9841675,6.5137181 37.2475209,6.42212078 37.5123264,6.33653689 C38.0058417,6.1770738 38.5140858,6.07076508 39.0253378,5.99559729 C38.7680003,6.03135568 38.5106629,6.06722145 38.2533255,6.10297984 C39.1798855,5.98131541 40.1174401,6.01353018 41.0494975,6.01353018 L45.5174813,6.01353018 L53.3496258,6.01353018 C53.8175214,6.01353018 54.2822017,6.04209394 54.7465708,6.10297984 C54.4892334,6.06722145 54.2318959,6.03135568 53.9745585,5.99559729 C54.4414169,6.06421474 54.8997701,6.16365098 55.3538706,6.29540937 C55.5770831,6.36026843 55.7964578,6.43844293 56.0143804,6.51973152 C56.2131142,6.59393286 56.7125418,6.81879192 55.8333833,6.42995971 C55.9600294,6.48590602 56.0840824,6.5475436 56.2081355,6.6090738 C56.6605764,6.83350333 57.0905094,7.10410736 57.503328,7.39844293 C58.1188219,7.83720803 56.9873047,6.95097984 57.564421,7.44139595 C57.7745644,7.61997313 57.9736093,7.81218789 58.1685054,8.00826843 C58.330936,8.17170467 58.4843427,8.34448319 58.6352601,8.51930198 C58.7259142,8.62432212 58.812212,8.73310064 58.8985098,8.84187916 C59.2407966,9.2736644 58.4562337,8.23012078 58.7748716,8.68134225 C59.0706904,9.10034896 59.3258497,9.54888587 59.5549744,10.0099865 C59.6644024,10.2301208 59.9965244,11.0638389 59.6028945,10.0705503 C59.7082774,10.3364295 59.7967533,10.6090738 59.8794208,10.8832214 C60.0333461,11.3941476 60.1361359,11.9203221 60.2087422,12.4496107 C60.1740986,12.1831946 60.1395588,11.9167785 60.1049152,11.6503624 C60.1596811,12.096859 60.188205,12.5431409 60.1914204,12.9932885 C60.2031411,14.632161 61.5035198,15.9999999 63.0956721,15.9999999 C64.669984,15.9999999 66.0116445,14.6323758 65.9999238,12.9932885 C65.9570861,7.03044293 61.8961124,1.60343624 56.2173668,0.321395972 C54.9242488,0.0294228187 53.640777,0 52.331893,0 L48.0949009,0 L39.800773,0 C34.9781593,0 30.3071891,2.74910066 28.2513938,7.35989259 C27.4544879,9.14716775 27.0142863,11.0159463 27.0000762,12.9932885 C26.9883555,14.6323758 28.3301198,15.9999999 29.9043279,15.9999999 C31.4964802,16.0003221 32.7968589,14.6323758 32.8086833,12.9936107" id="Fill-4" fill="#0C78BE"></path>
                        <path d="M56.6673135,49.9231907 C60.5780283,49.0788946 64.4885357,48.2346997 68.3992505,47.3905047 C74.5644725,46.0595349 80.7294871,44.7286662 86.8947091,43.3976963 C88.2217069,43.1111737 89.5487046,42.8247522 90.8757023,42.5382296 C92.4205839,42.2046781 93.3059056,40.4847333 92.902893,39.0547498 C92.4676435,37.5109866 90.8759096,36.7436562 89.3326865,37.0768032 C85.4219717,37.9210993 81.5114643,38.7652942 77.6007495,39.6094891 C71.4355275,40.940459 65.2705129,42.2713277 59.1052909,43.6022975 C57.7782931,43.8888201 56.4512954,44.1752416 55.1242977,44.4617642 C53.5794161,44.7953158 52.6940944,46.5153617 53.097107,47.9452441 C53.5323565,49.4891084 55.1239867,50.2563377 56.6673135,49.9231907" id="Fill-8" fill="#22B1D7"></path>
                        <path d="M37.8757111,44.4617669 C33.9651035,43.6175723 30.0544958,42.7733778 26.1438881,41.9290821 C19.9786716,40.5981129 13.8135588,39.2672448 7.64844597,37.9362756 C6.32144941,37.6497531 4.99445284,37.3632306 3.66735263,37.0768093 C2.12402722,36.7436624 0.532294742,37.5108914 0.0971493299,39.054755 C-0.305966561,40.4847378 0.579354298,42.2047829 2.12433819,42.5382331 C6.03494585,43.3824277 9.94555351,44.2267234 13.8561612,45.0709179 C20.0213777,46.4018871 26.1864905,47.7328563 32.3516033,49.0637244 C33.6785999,49.3502469 35.0055965,49.6366682 36.3326967,49.9231907 C37.8760221,50.2563376 39.4677546,49.4891086 39.9029,47.945245 C40.3059122,46.5153634 39.4204877,44.7953183 37.8757111,44.4617669" id="Fill-10" fill="#22B1D7"></path>
                        <path d="M46.5040981,52.1786648 C45.198842,52.1786648 43.8485337,52.2740965 42.5361531,52.1937384 C42.3730223,52.1475819 42.1970044,52.0907179 42.1051189,52.0655605 C42.1016614,52.0634814 42.0982039,52.0615062 42.0947465,52.0594271 C42.079764,52.0446653 42.0634195,52.02876 42.0445604,52.0107756 C42.0287398,51.995598 42.0112427,51.9777176 41.9933266,51.9586936 C41.9667144,51.9147202 41.9409404,51.870123 41.9156902,51.8253179 C41.9132804,51.8174172 41.911185,51.8104522 41.9085657,51.8020317 C41.8938975,51.7554594 41.88122,51.7083672 41.8697998,51.6609632 C41.7715232,50.3046476 41.8753528,48.9042547 41.8753528,47.5523052 C41.8753528,46.2123107 41.7749807,44.8256399 41.860056,43.4785764 C41.9064702,43.3167167 41.9638856,43.1419665 41.9892405,43.0505891 C41.9914407,43.0471585 41.9934314,43.04352 41.9956316,43.0400895 C42.0105093,43.0252238 42.0265395,43.0090066 42.0446652,42.9902945 C42.0598572,42.9745971 42.0778781,42.9573404 42.0970514,42.9395639 C42.141475,42.9130551 42.1865272,42.8874819 42.2317889,42.8624285 C42.2396469,42.8599335 42.2465618,42.8579584 42.2549436,42.8553594 C42.301777,42.8409095 42.3491341,42.8283309 42.3968056,42.8168957 C43.7527716,42.7204244 45.1525326,42.8224054 46.5042029,42.8224054 C47.8093542,42.8224054 49.1596625,42.7270776 50.4719384,42.8074357 C50.6349644,42.8534882 50.8108775,42.9103522 50.9028678,42.9354057 C50.90643,42.9375887 50.9099923,42.9396679 50.9134498,42.941747 C50.9284322,42.9565088 50.9447768,42.972414 50.9636358,42.9903985 C50.9795612,43.0055761 50.9970583,43.0235605 51.0149744,43.0426884 C51.0416913,43.0867658 51.0674654,43.131363 51.0927156,43.176272 C51.0951253,43.1839648 51.097116,43.1907219 51.0997353,43.1990384 C51.1141939,43.2454028 51.1268714,43.2922871 51.1382916,43.3393792 C51.2334251,44.6621169 51.1328434,46.0271649 51.1328434,47.3454325 C51.1327387,48.7552855 51.1327387,50.1651385 51.1327387,51.5751994 C51.0895724,51.7212578 51.0414818,51.8690834 51.0188509,51.950585 C51.0167555,51.9540156 51.01466,51.9575501 51.0125646,51.9609806 C50.9976869,51.9758464 50.9816567,51.9920635 50.963531,52.0107756 C50.9482343,52.0265769 50.9301086,52.0440416 50.9107257,52.0618181 C50.8664069,52.0883269 50.8215643,52.1137961 50.7764073,52.1387456 C50.7685494,52.1411366 50.7616344,52.1432157 50.7532526,52.1458146 C50.7063145,52.1602645 50.6587478,52.1728432 50.6109715,52.1842784 C49.2551103,52.2807497 47.8554541,52.1786648 46.5040981,52.1786648 L46.5040981,52.1786648 Z M57,43.9564628 C57,43.2648426 56.9523285,42.6130377 56.8238774,41.9195464 C56.5100837,40.2254773 55.2265155,38.7113563 53.7689201,37.8515352 C52.218182,36.9369292 50.5063037,37.0009662 48.7876153,37.0009662 L43.8796512,37.0009662 C42.0998803,37.0009662 40.2905636,37.0169754 38.7913735,38.1517605 C38.0081989,38.7445183 37.3768397,39.3534933 36.8655498,40.2068692 C36.3196849,41.1180446 36.1258558,42.0739212 36.0199307,43.1096361 C35.9833651,43.4668294 36.008301,43.8389923 36.008301,44.1969133 L36.008301,48.8735876 C36.008301,50.190192 35.9516191,51.5001431 36.1391619,52.8056242 C36.5782635,55.8633897 39.5665855,58 42.5632892,58 L50.4451166,58 C53.9639018,58 56.7989415,55.2875767 56.9895227,51.8380005 C56.9958091,51.7612809 57,51.6838336 57,51.6056586 L57,43.9564628 Z" id="Fill-6" fill="#0C78BE"></path>
                    </g>
                </g>
            </g>
        </g>
    </g>
</svg>