<?xml version="1.0" encoding="UTF-8" standalone="no"?>
<svg width="356px" height="120px" viewBox="0 0 356 120" version="1.1" xmlns="http://www.w3.org/2000/svg" xmlns:xlink="http://www.w3.org/1999/xlink">
    <!-- Generator: sketchtool 3.8.3 (29802) - http://www.bohemiancoding.com/sketch -->
    <title>0841FD48-AC3A-4FC6-A19C-367A2193DFA0</title>
    <desc>Created with sketchtool.</desc>
    <defs></defs>
    <g id="1.Main" stroke="none" stroke-width="1" fill="none" fill-rule="evenodd">
        <g id="1.0.1-Login-Screen-v4" transform="translate(-182.000000, -186.000000)">
            <g id="Logo" transform="translate(182.000000, 186.000000)">
                <polygon id="Shape" fill="#2DAED8" points="0 57.6074419 36.2144146 36.8 72.4886878 57.6074419 72.4886878 99.1925581 36.2144146 120 0 99.1925581"></polygon>
                <polygon id="Shape" fill="#2A4C9B" points="41.0769231 10.3851216 59.1841304 0 77.321267 10.3851216 77.321267 31.1851216 59.1841304 41.6 41.0769231 31.1851216"></polygon>
                <polygon id="Shape" fill="#0874BA" points="12.081448 20.4074392 20.9411765 15.2 29.800905 20.4074392 29.800905 30.7925608 20.9411765 36 12.081448 30.7925608"></polygon>
                <path d="M137.930084,92.8 C129.879307,92.8 120.661316,92.4723628 112.760181,91.8170883 L112.760181,81.4220525 L116.860391,80.8561337 L116.860391,42.1353699 L112.760181,41.5694511 L112.760181,31.2042005 C120.57153,30.6382816 129.520164,30.4 137.930084,30.4 C158.490992,30.4 167.529412,38.9781384 167.529412,58.4576611 L167.529412,64.4147017 C167.469555,84.132506 158.880063,92.8 137.930084,92.8 L137.930084,92.8 Z M152.325713,58.4278759 C152.325713,45.5010979 148.375145,42.2247255 138.109656,42.2247255 L131.794733,42.2247255 L131.794733,80.9454893 L137.930084,80.9454893 C148.195574,80.9454893 152.146141,77.3414797 152.146141,64.5040573 L152.146141,58.5470167 L152.325713,58.4278759 Z" id="Shape" fill="#0874BA"></path>
                <path d="M192.680015,58.3193454 L192.680015,81.2807137 L196.355206,81.698736 L196.355206,92 L174.778281,92 L174.778281,81.698736 L178.512748,81.2807137 L178.512748,56.0202227 L174.778281,55.6022004 L174.778281,45.1815014 L191.70194,45.1815014 L191.70194,49.1228546 C195.954025,45.4978481 201.437259,43.677941 206.995475,44.0468695 L206.995475,56.1695164 C202.147857,56.2148062 197.329987,56.9383315 192.680015,58.3193454 L192.680015,58.3193454 Z" id="Shape" fill="#0874BA"></path>
                <path d="M233.499737,92.8 C219.264232,92.8 211.022624,86.2854369 211.022624,70.9169903 L211.022624,65.8830097 C211.022624,50.5145631 219.264232,44 233.499737,44 C247.735242,44 256.126697,50.5145631 256.126697,65.8830097 L256.126697,70.8281553 C256.126697,86.2854369 247.885089,92.8 233.499737,92.8 L233.499737,92.8 Z M241.891192,65.8830097 C241.891192,57.7398058 239.433695,54.9859223 233.589645,54.9859223 C227.745596,54.9859223 225.348037,57.7398058 225.348037,65.8830097 L225.348037,70.8281553 C225.348037,78.9713592 227.805535,81.7252427 233.589645,81.7252427 C239.373756,81.7252427 241.891192,79.0601942 241.891192,70.8281553 L241.891192,65.7941748 L241.891192,65.8830097 Z" id="Shape" fill="#0874BA"></path>
                <path d="M263.405619,108.650558 L263.405619,98.2194758 L267.192341,97.801037 L267.192341,55.9571561 L263.405619,55.5387173 L263.405619,45.1076356 L280.505977,45.1076356 L280.505977,48.0964842 C284.635156,45.369583 289.494439,43.9427085 294.450733,44.0017616 C304.939353,44.0017616 311.701357,49.740351 311.701357,65.4318063 L311.701357,71.4095036 C311.701357,87.5791747 303.286419,93.4074295 289.822516,93.4074295 C287.051036,93.3974903 284.285693,93.1474746 281.557844,92.6602174 L281.557844,97.9504795 L285.344567,98.3689183 L285.344567,108.8 L263.375566,108.8 L263.405619,108.650558 Z M297.335855,65.3720293 C297.335855,57.421692 295.111907,55.1202785 289.67225,55.1202785 C286.813761,55.1537781 283.99565,55.7958401 281.407577,57.0032532 L281.407577,81.4819235 C283.7477,81.9204333 286.119603,82.1703159 288.500169,82.2291356 C294.270413,82.2291356 297.335855,80.346161 297.335855,71.2301727 L297.335855,65.2524754 L297.335855,65.3720293 Z" id="Shape" fill="#0874BA"></path>
                <path d="M335.612996,92.8 C330.012884,92.7545967 324.430938,92.1595138 318.948274,91.023399 L318.948274,79.1793926 L328.173388,79.1793926 L328.917349,82.9990847 C330.881405,82.9990847 332.845462,83.1471347 334.869035,83.1471347 C340.523137,83.1471347 342.070575,81.844294 342.070575,79.1497826 C342.070575,76.4552711 340.939755,75.8038507 335.047585,73.4646595 L331.625366,72.0729887 C322.876387,68.7270569 318.144796,64.9961948 318.144796,57.2679806 C318.144796,46.934085 325.495129,44.0026934 337.368743,44.0026934 C343.19508,43.9534546 349.007361,44.5794812 354.68815,45.8681244 L354.68815,57.0903205 L345.463036,57.0903205 L344.6298,53.7443887 C342.755019,53.7443887 340.285069,53.5963386 338.678114,53.5963386 C333.946523,53.5963386 331.982467,54.1589289 331.982467,56.8534404 C331.982467,59.5479519 333.113287,60.0217121 338.112704,61.8871431 L342.189609,63.426864 C352.396751,67.3353861 355.997521,70.9181981 355.997521,78.4687522 C356.146313,88.0920074 349.599458,92.8 335.612996,92.8 L335.612996,92.8 Z" id="Shape" fill="#0874BA"></path>
            </g>
        </g>
    </g>
</svg>