<?xml version="1.0" encoding="UTF-8" standalone="no"?>
<svg width="98px" height="98px" viewBox="0 0 98 98" version="1.1" xmlns="http://www.w3.org/2000/svg" xmlns:xlink="http://www.w3.org/1999/xlink">
    <!-- Generator: sketchtool 39.1 (31720) - http://www.bohemiancoding.com/sketch -->
    <title>312265F3-CE09-41E8-86E4-0A0048386DCD</title>
    <desc>Created with sketchtool.</desc>
    <defs></defs>
    <g id="3.Move" stroke="none" stroke-width="1" fill="none" fill-rule="evenodd">
        <g id="3.1.0-Move" transform="translate(-48.000000, -675.000000)">
            <g id="List" transform="translate(28.000000, 181.000000)">
                <g id="Item-Copy-5" transform="translate(0.000000, 474.000000)">
                    <g id="mv_autolib" transform="translate(20.000000, 20.000000)">
                        <rect id="Rectangle-52-Copy" fill="#E0F3F9" x="0" y="0" width="98" height="98" rx="4"></rect>
                        <g id="Page-1" transform="translate(17.000000, 29.000000)" fill="#0C78BE">
                            <path d="M14.553971,39.5786047 C10.4134493,39.5786047 7.04742029,36.1990698 7.04742029,32.0493023 C7.04742029,27.8995349 10.4162319,24.52 14.553971,24.52 C18.6954203,24.52 22.0614493,27.8995349 22.0614493,32.0493023 C22.0614493,36.1990698 18.6954203,39.5786047 14.553971,39.5786047 L14.553971,39.5786047 Z M14.553971,28.6260465 C12.6738551,28.6260465 11.1415652,30.1637209 11.1415652,32.0493023 C11.1415652,33.9386047 12.6701449,35.4725581 14.553971,35.4725581 C16.4350145,35.4725581 17.9673043,33.9386047 17.9673043,32.0493023 C17.9673043,30.16 16.4350145,28.6260465 14.553971,28.6260465 L14.553971,28.6260465 Z" id="Fill-1"></path>
                            <path d="M48.4711884,39.5786047 C44.3297391,39.5786047 40.9637101,36.1990698 40.9637101,32.0493023 C40.9637101,27.8995349 44.3334493,24.52 48.4711884,24.52 C52.6126377,24.52 55.9786667,27.8995349 55.9786667,32.0493023 C55.9786667,36.1990698 52.6126377,39.5786047 48.4711884,39.5786047 L48.4711884,39.5786047 Z M48.4711884,28.6260465 C46.5901449,28.6260465 45.0578551,30.1637209 45.0578551,32.0493023 C45.0578551,33.9386047 46.5901449,35.4725581 48.4711884,35.4725581 C50.3513043,35.4725581 51.8845217,33.9386047 51.8845217,32.0493023 C51.8845217,30.16 50.3513043,28.6260465 48.4711884,28.6260465 L48.4711884,28.6260465 Z" id="Fill-2"></path>
                            <path d="M48.4711884,13.7786047 C48.4711884,13.7786047 42.7863188,3.3172093 31.9091014,0.879069767 C31.9091014,0.879069767 25.9598841,-0.148837209 18.982029,0.879069767 C18.982029,0.879069767 5.73588406,3.96093023 2.08695652,17.8232558 C2.08695652,17.8232558 -0.463768116,26.2213953 0.680811594,28.9897674 C1.76788406,31.6204651 5.42423188,32.0893023 5.42423188,32.0893023 C5.42423188,27.0567442 9.4924058,22.975814 14.5113043,22.975814 C19.5292754,22.975814 23.5974493,27.0530233 23.5974493,32.0893023 L39.3841159,32.0893023 C39.3841159,27.0567442 43.4532174,22.975814 48.4711884,22.975814 C53.4891594,22.975814 57.5582609,27.0530233 57.5582609,32.0893023 L62.6272464,32.0893023 C62.6235362,32.0893023 69.9603478,20.1962791 48.4711884,13.7786047 L48.4711884,13.7786047 Z M24.3589565,13.5646512 C24.3589565,13.5646512 24.1011014,15.8753488 21.8406957,15.8753488 L10.2789565,15.8753488 C10.2789565,15.8753488 7.35536232,16.0465116 9.09449275,11.8967442 C9.09449275,11.8967442 12.4568116,5.77767442 21.5865507,3.76837209 C21.5865507,3.76837209 23.8478841,2.9544186 24.3589565,5.35255814 L24.3589565,13.5646512 Z M43.8984348,15.8753488 L29.2646957,15.8753488 C27.7713623,15.7488372 27.1304348,13.4772093 27.1304348,13.4772093 L27.1304348,5.30511628 C27.8548406,3.6772093 29.2211014,3.63348837 29.2211014,3.63348837 C39.8005797,4.91255814 44.749913,13.9060465 44.749913,13.9060465 C45.8583188,15.7013953 43.8984348,15.8753488 43.8984348,15.8753488 L43.8984348,15.8753488 Z" id="Fill-3"></path>
                        </g>
                    </g>
                </g>
            </g>
        </g>
    </g>
</svg>