<?xml version="1.0" encoding="UTF-8" standalone="no"?>
<svg width="98px" height="98px" viewBox="0 0 98 98" version="1.1" xmlns="http://www.w3.org/2000/svg" xmlns:xlink="http://www.w3.org/1999/xlink">
    <!-- Generator: sketchtool 39.1 (31720) - http://www.bohemiancoding.com/sketch -->
    <title>2A0F0DA9-6D83-462E-A855-F35595ED0E7D</title>
    <desc>Created with sketchtool.</desc>
    <defs>
        <rect id="path-1" x="0" y="0" width="98" height="98" rx="4"></rect>
    </defs>
    <g id="3.Move" stroke="none" stroke-width="1" fill="none" fill-rule="evenodd">
        <g id="3.1.0-Move" transform="translate(-48.000000, -1149.000000)">
            <g id="List" transform="translate(28.000000, 181.000000)">
                <g id="Item-Copy-6" transform="translate(0.000000, 948.000000)">
                    <g id="mv_airport" transform="translate(20.000000, 20.000000)">
                        <mask id="mask-2" fill="white">
                            <use xlink:href="#path-1"></use>
                        </mask>
                        <use id="Mask" fill="#E0F3F9" xlink:href="#path-1"></use>
                        <path d="M38.4167738,72.3754507 L36.1889745,64.9968864 C34.2184478,66.137418 32.5689428,66.7494384 32.022523,66.1866084 L32.0088625,66.1866084 C31.3861715,65.5780198 32.1784803,63.6527293 33.5160706,61.4357281 L25.6191651,59.0276851 C25.1080348,58.7371183 24.8234411,58.2761011 25.1205569,57.9901102 L26.2987748,56.9536793 C26.7837224,56.6997194 27.3483563,56.4491914 27.900468,56.462919 L36.9676228,56.5029577 C37.9056436,55.305228 38.8300039,54.2459178 39.5858847,53.4863261 L47.8311329,45.2063185 L46.3011572,43.6688317 L29.9984927,40.4474305 C28.0382114,40.0447554 26.0460556,39.9818374 27.1354802,38.3642731 L28.1315581,37.0281238 C28.7360351,36.2147657 29.8789633,35.7285813 30.8887017,35.7285813 L57.2705362,35.7285813 L64.3637491,28.6051208 C67.422562,25.5175634 71.0517007,24.1459513 72.4393795,25.5530263 L72.4564551,25.5530263 C73.8441339,26.9475178 72.4837761,30.5933293 69.4113027,33.6808867 L62.3180897,40.808923 L62.3180897,67.9025536 C62.3180897,68.9161052 61.8331421,70.0692204 61.0192042,70.676665 L59.6895825,71.677633 C58.0844741,72.7678302 58.0184484,70.7658941 57.6222939,68.795989 L54.2561199,51.672 L52.8821016,50.2912361 L44.6425452,58.5712436 C43.7489211,59.4784067 42.4101924,60.6223701 40.9382739,61.7571819 L40.9735635,70.0829479 C40.987224,70.6412021 40.7379199,71.2040321 40.4795088,71.6913605 L39.4481413,72.8753627 C39.1635477,73.179657 38.7104745,72.8936661 38.4167738,72.3754507 L38.4167738,72.3754507 Z" id="Page-1" fill="#0C78BE" mask="url(#mask-2)"></path>
                    </g>
                </g>
            </g>
        </g>
    </g>
</svg>