<?xml version="1.0" encoding="UTF-8" standalone="no"?>
<svg width="98px" height="98px" viewBox="0 0 98 98" version="1.1" xmlns="http://www.w3.org/2000/svg" xmlns:xlink="http://www.w3.org/1999/xlink">
    <!-- Generator: sketchtool 39.1 (31720) - http://www.bohemiancoding.com/sketch -->
    <title>34DB5182-709A-46FA-9450-7538F32403D2</title>
    <desc>Created with sketchtool.</desc>
    <defs>
        <rect id="path-1" x="0" y="0" width="98" height="98" rx="4"></rect>
    </defs>
    <g id="3.Move" stroke="none" stroke-width="1" fill="none" fill-rule="evenodd">
        <g id="3.1.0-Move" transform="translate(-48.000000, -991.000000)">
            <g id="List" transform="translate(28.000000, 181.000000)">
                <g id="Item-Copy-4" transform="translate(0.000000, 790.000000)">
                    <g id="mv_live_traffic" transform="translate(20.000000, 20.000000)">
                        <mask id="mask-2" fill="white">
                            <use xlink:href="#path-1"></use>
                        </mask>
                        <use id="Mask" fill="#E0F3F9" xlink:href="#path-1"></use>
                        <g id="Page-1" mask="url(#mask-2)" fill="#0C78BE">
                            <g transform="translate(28.000000, 25.000000)">
                                <path d="M28.3478261,0.52173913 L12.6956522,0.52173913 C9.81495652,0.52173913 7.47826087,2.85843478 7.47826087,5.73913043 L7.47826087,42.2608696 C7.47826087,45.1415652 9.81495652,47.4782609 12.6956522,47.4782609 L28.3478261,47.4782609 C31.2285217,47.4782609 33.5652174,45.1415652 33.5652174,42.2608696 L33.5652174,5.73913043 C33.5652174,2.85843478 31.2285217,0.52173913 28.3478261,0.52173913 L28.3478261,0.52173913 Z M20.5217391,42.2608696 C17.6410435,42.2608696 15.3043478,39.9241739 15.3043478,37.0434783 C15.3043478,34.1627826 17.6410435,31.826087 20.5217391,31.826087 C23.4024348,31.826087 25.7391304,34.1627826 25.7391304,37.0434783 C25.7391304,39.9241739 23.4024348,42.2608696 20.5217391,42.2608696 L20.5217391,42.2608696 Z M20.5217391,29.2173913 C17.6410435,29.2173913 15.3043478,26.8806957 15.3043478,24 C15.3043478,21.1193043 17.6410435,18.7826087 20.5217391,18.7826087 C23.4024348,18.7826087 25.7391304,21.1193043 25.7391304,24 C25.7391304,26.8806957 23.4024348,29.2173913 20.5217391,29.2173913 L20.5217391,29.2173913 Z M20.5217391,16.173913 C17.6410435,16.173913 15.3043478,13.8372174 15.3043478,10.9565217 C15.3043478,8.07582609 17.6410435,5.73913043 20.5217391,5.73913043 C23.4024348,5.73913043 25.7391304,8.07582609 25.7391304,10.9565217 C25.7391304,13.8372174 23.4024348,16.173913 20.5217391,16.173913 L20.5217391,16.173913 Z" id="Fill-1"></path>
                                <path d="M39.3043478,5.73913043 L35.6521739,5.73913043 L35.6521739,13.5652174 L40.3478261,7.82608696 C41.9130435,5.73913043 39.3043478,5.73913043 39.3043478,5.73913043 L39.3043478,5.73913043 Z" id="Fill-2"></path>
                                <path d="M39.3043478,18.7826087 L35.6521739,18.7826087 L35.6521739,26.6086957 L40.3478261,20.8695652 C41.9130435,18.7826087 39.3043478,18.7826087 39.3043478,18.7826087 L39.3043478,18.7826087 Z" id="Fill-3"></path>
                                <path d="M39.3043478,31.826087 L35.6521739,31.826087 L35.6521739,39.6521739 L40.3478261,33.9130435 C41.9130435,31.826087 39.3043478,31.826087 39.3043478,31.826087 L39.3043478,31.826087 Z" id="Fill-4"></path>
                                <path d="M1.728,5.73913043 C1.728,5.73913043 -0.888347826,5.73913043 0.68173913,7.82608696 L5.39130435,13.5652174 L5.39130435,5.73913043 L1.728,5.73913043 Z" id="Fill-5"></path>
                                <path d="M1.728,18.7826087 C1.728,18.7826087 -0.888347826,18.7826087 0.68173913,20.8695652 L5.39130435,26.6086957 L5.39130435,18.7826087 L1.728,18.7826087 Z" id="Fill-6"></path>
                                <path d="M1.728,31.826087 C1.728,31.826087 -0.888347826,31.826087 0.68173913,33.9130435 L5.39130435,39.6521739 L5.39130435,31.826087 L1.728,31.826087 Z" id="Fill-7"></path>
                            </g>
                        </g>
                    </g>
                </g>
            </g>
        </g>
    </g>
</svg>