<?xml version="1.0" encoding="UTF-8" standalone="no"?>
<svg width="98px" height="98px" viewBox="0 0 98 98" version="1.1" xmlns="http://www.w3.org/2000/svg" xmlns:xlink="http://www.w3.org/1999/xlink">
    <!-- Generator: sketchtool 39.1 (31720) - http://www.bohemiancoding.com/sketch -->
    <title>659286A1-4294-4769-9891-72ADE0A1A77B</title>
    <desc>Created with sketchtool.</desc>
    <defs>
        <rect id="path-1" x="0" y="0" width="98" height="98" rx="4"></rect>
    </defs>
    <g id="3.Move" stroke="none" stroke-width="1" fill="none" fill-rule="evenodd">
        <g id="3.1.0-Move" transform="translate(-48.000000, -201.000000)">
            <g id="List" transform="translate(28.000000, 181.000000)">
                <g id="Item">
                    <g id="mv_taxi" transform="translate(20.000000, 20.000000)">
                        <mask id="mask-2" fill="white">
                            <use xlink:href="#path-1"></use>
                        </mask>
                        <use id="Mask" fill="#E0F3F9" xlink:href="#path-1"></use>
                        <path d="M47.8016298,25.7745401 L46.1733172,29.3473285 L37.6876115,29.3473285 C35.5661851,29.3473285 33.6587871,30.6095766 32.807388,32.5697518 L28.1411927,43.4310657 L22.4142843,43.4310657 C21.6373708,43.4310657 21,44.0626569 21,44.8325255 L21,47.6354453 C21,48.4053139 21.6373708,49.0369051 22.4142843,49.0369051 L26.303566,49.0369051 L25.0288245,62.7011387 L25.0288245,62.8394161 C25.0288245,65.3620438 26.8664512,67.5333723 29.2716773,67.9566131 L29.2716773,71.5985401 C29.2716773,72.3693431 29.9090481,73 30.6859615,73 L36.7664411,73 C37.5442974,73 38.1807253,72.3693431 38.1807253,71.5985401 L38.1807253,68.0948905 L59.8192747,68.0948905 L59.8192747,71.5985401 C59.8192747,72.3693431 60.4557026,73 61.2335589,73 L67.3140385,73 C68.0909519,73 68.7283227,72.3693431 68.7283227,71.5985401 L68.7283227,67.9566131 C71.1335488,67.4679708 72.9711755,65.365781 72.9711755,62.8394161 L72.9711755,62.7011387 L71.696434,49.0369051 L75.5857157,49.0369051 C76.3635721,49.0369051 77,48.4053139 77,47.6354453 L77,44.8325255 C77,44.0626569 76.3635721,43.4310657 75.5857157,43.4310657 L69.8588073,43.4310657 L65.2661548,32.5006131 C64.41947,30.5367007 62.5073576,29.2781898 60.3859312,29.2781898 L59.1121325,29.2781898 L58.3342762,27.6646423 L57.4140486,25.7007299 C57.2000202,25.2812263 56.7069064,25 56.139307,25 L49.0678856,25 C48.5087719,25.0738102 48.0109439,25.350365 47.8016298,25.7745401 L47.8016298,25.7745401 Z M34.7195003,57.8651679 C32.5980739,57.8651679 30.8999899,56.1824818 30.8999899,54.080292 C30.8999899,51.9781022 32.5980739,50.2963504 34.7195003,50.2963504 C36.8409267,50.2963504 38.5380678,51.9781022 38.5380678,54.080292 C38.5380678,56.1824818 36.8409267,57.8651679 34.7195003,57.8651679 L34.7195003,57.8651679 Z M63.2842711,57.8651679 C61.1628447,57.8651679 59.4657036,56.1824818 59.4657036,54.080292 C59.4657036,51.9781022 61.1628447,50.2963504 63.2842711,50.2963504 C65.4056975,50.2963504 67.1037815,51.9781022 67.1037815,54.080292 C67.1037815,56.1824818 65.4056975,57.8651679 63.2842711,57.8651679 L63.2842711,57.8651679 Z M62.0142439,33.902073 L67.1037815,45.8836204 L30.8999899,45.8836204 L35.9895276,33.902073 C36.2733273,33.2704818 36.9106981,32.8509781 37.6178402,32.8509781 L60.3161599,32.8509781 C61.0930734,32.8509781 61.7304442,33.2704818 62.0142439,33.902073 L62.0142439,33.902073 Z" id="Page-1" fill="#0C78BE" mask="url(#mask-2)"></path>
                    </g>
                </g>
            </g>
        </g>
    </g>
</svg>