<?xml version="1.0" encoding="UTF-8" standalone="no"?>
<svg width="98px" height="98px" viewBox="0 0 98 98" version="1.1" xmlns="http://www.w3.org/2000/svg" xmlns:xlink="http://www.w3.org/1999/xlink">
    <!-- Generator: sketchtool 39.1 (31720) - http://www.bohemiancoding.com/sketch -->
    <title>968DDAA9-BB5C-4EF2-94E1-E6CE5CBC7B83</title>
    <desc>Created with sketchtool.</desc>
    <defs></defs>
    <g id="3.Move" stroke="none" stroke-width="1" fill="none" fill-rule="evenodd">
        <g id="3.1.0-Move" transform="translate(-48.000000, -517.000000)">
            <g id="List" transform="translate(28.000000, 181.000000)">
                <g id="Item-Copy" transform="translate(0.000000, 316.000000)">
                    <g id="mv_Velib" transform="translate(20.000000, 20.000000)">
                        <rect id="Rectangle-52-Copy" fill="#E0F3F9" x="0" y="0" width="98" height="98" rx="4"></rect>
                        <g id="Page-1" transform="translate(49.000000, 49.000000) scale(-1, 1) translate(-49.000000, -49.000000) translate(17.000000, 29.000000)" fill="#0C78BE">
                            <path d="M11.6369067,16.4164267 C5.2096,16.4164267 0,21.62688 0,28.0533333 C0,34.4797867 5.2096,39.69024 11.6369067,39.69024 C18.06336,39.69024 23.27296,34.4797867 23.27296,28.0533333 C23.27296,21.62688 18.06336,16.4164267 11.6369067,16.4164267 L11.6369067,16.4164267 Z M11.6369067,36.7803733 C6.81642667,36.7803733 2.90986667,32.87296 2.90986667,28.0533333 C2.90986667,23.2337067 6.81642667,19.3262933 11.6369067,19.3262933 C16.4565333,19.3262933 20.3630933,23.2337067 20.3630933,28.0533333 C20.3630933,32.87296 16.4565333,36.7803733 11.6369067,36.7803733 L11.6369067,36.7803733 Z" id="Fill-1"></path>
                            <path d="M52.3630933,16.4164267 C45.93664,16.4164267 40.72704,21.62688 40.72704,28.0533333 C40.72704,34.4797867 45.93664,39.69024 52.3630933,39.69024 C58.7904,39.69024 64,34.4797867 64,28.0533333 C64,21.62688 58.7904,16.4164267 52.3630933,16.4164267 L52.3630933,16.4164267 Z M52.3630933,36.7803733 C47.5434667,36.7803733 43.6369067,32.87296 43.6369067,28.0533333 C43.6369067,23.2337067 47.5434667,19.3262933 52.3630933,19.3262933 C57.1835733,19.3262933 61.0901333,23.2337067 61.0901333,28.0533333 C61.0901333,32.87296 57.1835733,36.7803733 52.3630933,36.7803733 L52.3630933,36.7803733 Z" id="Fill-2"></path>
                            <path d="M53.6200533,28.7735467 C53.6430933,28.73344 53.6669867,28.6933333 53.6866133,28.6532267 C53.7070933,28.6097067 53.7198933,28.5636267 53.73696,28.5201067 C53.74976,28.4765867 53.7668267,28.4296533 53.7770667,28.3869867 C53.7864533,28.3434667 53.7898667,28.2999467 53.7966933,28.2530133 C53.80352,28.2001067 53.8103467,28.14976 53.8129067,28.0968533 C53.8129067,28.0832 53.81632,28.0669867 53.81632,28.0533333 C53.81632,28.0234667 53.8103467,27.9970133 53.8103467,27.9697067 C53.8069333,27.9168 53.80352,27.8664533 53.79328,27.8101333 C53.7864533,27.7632 53.7736533,27.71968 53.7634133,27.6736 C53.74976,27.63008 53.7403733,27.5831467 53.7198933,27.5396267 C53.7002667,27.4901333 53.6797867,27.4432 53.6533333,27.3937067 C53.63968,27.3698133 53.6337067,27.34336 53.61664,27.32032 L43.86304,10.5966933 L46.83008,5.51338667 C47.2362667,4.81962667 46.9998933,3.92704 46.3069867,3.52341333 C46.0032,3.34677333 45.6635733,3.29642667 45.34016,3.35018667 C45.2565333,3.33653333 45.17376,3.32629333 45.08672,3.32629333 L39.2669867,3.32629333 C38.4631467,3.32629333 37.8129067,3.97653333 37.8129067,4.78037333 C37.8129067,5.58336 38.4631467,6.2336 39.2669867,6.2336 L43.0370133,6.2336 L41.3397333,9.14346667 L24.3498667,9.14346667 L27.7469867,3.32629333 L29.0935467,3.32629333 C29.8965333,3.32629333 30.5467733,2.67690667 30.5467733,1.87306667 C30.5467733,1.07008 29.89312,0.416426667 29.0901333,0.416426667 L21.81632,0.416426667 C21.0133333,0.416426667 20.3630933,1.06666667 20.3630933,1.86965333 C20.3630933,2.67349333 21.0133333,3.32373333 21.81632,3.32373333 L24.37632,3.32373333 L10.3799467,27.3237333 C9.97376,28.01664 10.2101333,28.9066667 10.90304,29.3137067 C11.13344,29.4468267 11.38688,29.5133867 11.6334933,29.5133867 C12.1335467,29.5133867 12.6199467,29.25312 12.8896,28.78976 L21.81632,13.4869333 L30.74304,28.7863467 C30.75328,28.8034133 30.7669333,28.8196267 30.77632,28.8366933 C30.7899733,28.85632 30.8002133,28.8768 30.8164267,28.8930133 C30.8266667,28.9066667 30.8334933,28.92032 30.8462933,28.93312 C30.8829867,28.9834667 30.91968,29.0235733 30.9632,29.06624 C30.9666133,29.0730667 30.97344,29.07648 30.9768533,29.0833067 C30.9896533,29.09696 31.0033067,29.1063467 31.01696,29.12 C31.02976,29.1336533 31.0434133,29.14304 31.0570667,29.1566933 C31.09376,29.18656 31.1296,29.2164267 31.1697067,29.2462933 C31.18336,29.2565333 31.1995733,29.2667733 31.21664,29.2770133 C31.2302933,29.2829867 31.23968,29.2898133 31.2533333,29.3000533 C31.26016,29.3034667 31.2635733,29.30688 31.2669867,29.3102933 C31.2704,29.3137067 31.2704,29.3137067 31.27296,29.3162667 C31.3130667,29.34016 31.3531733,29.3563733 31.3966933,29.3768533 C31.40352,29.3802667 31.4069333,29.38368 31.4103467,29.38368 C31.4197333,29.3870933 31.4299733,29.3930667 31.4402133,29.39648 C31.4436267,29.39648 31.44704,29.3998933 31.4496,29.3998933 C31.48032,29.4135467 31.5136,29.4229333 31.5434667,29.4331733 C31.5733333,29.4434133 31.5997867,29.4536533 31.6296533,29.46304 C31.63648,29.46304 31.6433067,29.4664533 31.64672,29.4664533 C31.65696,29.4698667 31.6663467,29.4698667 31.68,29.47328 C31.6996267,29.4766933 31.7166933,29.4801067 31.73632,29.48352 C31.82336,29.4997333 31.9104,29.5099733 31.9965867,29.5099733 L32,29.5099733 L32,29.5099733 L32.0068267,29.5099733 L52.35968,29.5099733 L52.3665067,29.5099733 C52.4535467,29.5099733 52.5397333,29.4997333 52.6267733,29.48352 C52.6464,29.4801067 52.6634667,29.4766933 52.6830933,29.47328 C52.7633067,29.4536533 52.84352,29.4331733 52.9237333,29.3998933 C52.93312,29.39648 52.9399467,29.3896533 52.9501867,29.3870933 C52.99968,29.3632 53.0466133,29.3435733 53.09696,29.3137067 C53.10976,29.30688 53.12,29.29664 53.1336533,29.2898133 C53.17632,29.2599467 53.21984,29.23008 53.26336,29.1968 C53.29664,29.1703467 53.3333333,29.1396267 53.3632,29.10976 C53.3998933,29.07648 53.42976,29.0397867 53.4596267,29.0065067 C53.4903467,28.9698133 53.5236267,28.9365333 53.55008,28.89984 C53.5765333,28.8597333 53.5970133,28.8170667 53.6200533,28.7735467 L53.6200533,28.7735467 Z M49.8304,26.6001067 L34.5335467,26.6001067 L42.18368,13.4869333 L49.8304,26.6001067 Z M32,25.1665067 L24.3498667,12.0533333 L39.6501333,12.0533333 L32,25.1665067 Z" id="Fill-3"></path>
                        </g>
                    </g>
                </g>
            </g>
        </g>
    </g>
</svg>